<svg height="135" viewBox="0 0 135 135" width="135" xmlns="http://www.w3.org/2000/svg">
    <path d="m54.5 48.8 2 1.7 1.3-2.3 2 1.7 1.2-2.3 2 1.7 1.3-2.3 2 1.6 1.2-2.2" fill="none" stroke="#6d6e71"
        strokeLinejoin="round" strokeWidth=".8" />
    <g fill="#fff">
        <path d="m108 47.5c.2.3.3.6.3 1 0 .5-.2.9-.4 1.1-.1.1-.2.1-.3.2.1-.4.2-.7.3-1.2.1-.4.1-.7.1-1.1z" />
        <path d="m107.8 15.5-2.7 16.1-5.9 2.9 2.8-16.7z" />
        <path
            d="m107 47.2c.1-.1.2-.1.4-.1.3 0 .5.2.7.4 0 .4 0 .7-.1 1.1s-.2.8-.3 1.2c-.1.1-.2.1-.3.1l-3.9.8c-.1-.8 0-1.7.2-2.8z" />
        <path d="m106.1 44c1.2.2 2 1.7 2 3.5-.2-.3-.4-.4-.7-.4-.2 0-.3.1-.4.1l-3.4.7c.4-2.3 1-4.2 2.5-3.9z" />
        <path d="m105.4 52.4 2.8-.6-3.7 19.8-5.7 4.1-3.5-.6 3.6-21.3 6-1.2.5-.1z" />
        <path d="m105.2 52.4-.5.1z" />
        <path d="m104.7 52.3c-.8-.1-1.1-.8-1.2-1.7l3.9-.8c.1 0 .2 0 .4-.1-.8 1.7-2 2.8-3.1 2.6z" />
        <path
            d="m104.7 52.5-6 1.2.4-2.2 4.4-.9c.1.9.5 1.5 1.2 1.7 1.2.2 2.4-.9 3-2.6.1 0 .2-.1.3-.2l.3 1.9-.1.3-2.8.6h-.2z" />
        <path
            d="m99.5 48.7 1.1-6.2 10-3.5-2.3 12.5-.3-1.9c.2-.2.4-.6.4-1.1 0-.4-.1-.7-.3-1 0-1.8-.8-3.3-2-3.5-1.4-.2-2 1.6-2.4 3.9l-1.2.3z" />
        <path d="m103.6 47.9c-.2 1-.3 2-.2 2.8l-4.4.9.5-2.8 2.9-.6z" />
        <path d="m102 17.7-2.8 16.8-4.8-1 .4-2.1-3.6-.6-.3 1.9-7.2-1.5 1.4-8.3v-.1l1.4-8.4z" />
        <path d="m99.9 5.2-.9 8.5-1.2-.2z" />
        <path d="m98.7 75.7c1.1.3 1.6 2.5 1.1 5s-1.9 4.4-3 4.2l1.9-9.1z" />
        <path d="m99 51.6-.3 2.1-2 .4-5.8 1.2-.2-1.8v-.2z" />
        <path d="m98.7 75.7-.1.1v-.1z" />
        <path d="m98.6 75.7v.1l-2 1.4c.6-1 1.4-1.6 2-1.5z" />
        <path d="m98.6 75.7c-.6-.1-1.4.5-2 1.5l-2.2 1.6.6-3.6z" />
        <path d="m98.6 75.8-1.9 9.1h-.1c-1-.4-1.4-2.5-.9-5 .2-1.1.6-2 1-2.7z" />
        <path d="m97.8 13.5 1.2.2-.1 1.2c0 .2-.4.3-.7.2-.4-.1-.7-.2-.6-.4z" />
        <path d="m102 17.7-15.5-3.3 8.9-1.4 2.4.5-.3 1.2c0 .2.3.4.6.5.4.1.7 0 .7-.2l.1-1.2 8.8 1.7z" />
        <path
            d="m86.9 82.2c-1.4-.3-2.1-2.4-1.7-4.7.1-.5.3-1 .5-1.4l8.8 2.6 2.2-1.5c-.4.7-.8 1.7-1 2.7-.5 2.4-.1 4.6.9 5l-5.5-1.5.2-.7c.3-.5-.1-1.1-.7-1.5-.7-.4-1.4-.3-1.7.2-.1.1-.1.3-.1.4l-.3 1z" />
        <path d="m88.6 73.9 6.5 1.2-.6 3.6-8.8-2.6c.7-1.5 1.8-2.4 2.9-2.2z" />
        <path d="m94.8 31.4-.4 2.1-3.5-.8.3-1.9z" />
        <path d="m90.9 32.7 3.5.8-.4 2.5-3.5-.7z" />
        <path d="m91.6 125.6-2.9.8 2.8-2.3z" />
        <path d="m91.8 38.2c-1-.2-1.7-.6-1.7-.9l.3-2 3.5.7-.3 1.9c0 .3-.8.5-1.8.3z" />
        <path d="m88.8 86.9c-.5-.2-.9-.3-1.4-.3l.8-2.8c.4.1.9.1 1.3.3s.9.3 1.2.5l-.8 2.9c-.3-.2-.7-.4-1.1-.6z" />
        <path d="m100.6 42.5-25.4-5.3 12.7-2.4 2.6.5-.3 2c-.1.4.7.8 1.7.9 1 .2 1.8 0 1.9-.3l.3-1.9 16.6 3.1z" />
        <path
            d="m90.4 53.4c-.1.1-.2.1-.3.1h-.1c.2-.3.4-.7.4-1.2 0-.6-.2-1.1-.5-1.5.1 0 .1-.1.2-.1l9.5-1.9-.5 2.8-8.3 1.8z" />
        <path d="m89.3 52.1c0-.6.2-1 .5-1.2.4.4.6.9.5 1.5 0 .4-.1.8-.4 1.2-.3-.3-.6-.8-.6-1.5z" />
        <path d="m89.5 123.9-.4.3-1.3.1z" />
        <path d="m89.4 114.1.1 9.8-1.7.4-3.2.3-.1-6.5 4.9-3.9z" />
        <path d="m89.4 114.1v.1z" />
        <path d="m89.4 114.1v.1z" />
        <path d="m89.2 105.8.2 8.3z" />
        <path d="m88 89.8c-.5-.2-1-.3-1.4-.3l.8-2.9c.4.1.9.2 1.4.3.4.1.8.3 1.2.5l-.8 2.8c-.4-.1-.8-.3-1.2-.4z" />
        <path d="m89.5 84.1c-.5-.1-.9-.2-1.3-.3l.3-1.1 2.6.7-.3 1.2c-.4-.2-.8-.4-1.3-.5z" />
        <path d="m89.1 124.2-4.5 2.8v-1.9l3.2-.8z" />
        <path d="m88.8 81.7c0-.1 0-.2.1-.4.3-.5 1-.5 1.7-.2.7.4 1 1.1.8 1.5l-.2.7-2.6-.7z" />
        <path d="m87.2 92.6c-.5-.2-1-.3-1.4-.3l.8-2.8c.4 0 .9.1 1.4.3.4.1.8.3 1.2.5l-.8 2.8c-.4-.1-.8-.3-1.2-.5z" />
        <path d="m87.2 102.8c.1-.3 0-.6-.1-.7l.7-2.5c.7.2 1 1.6.6 3.2z" />
        <path d="m87.8 124.3-3.2.8v-.5z" />
        <path d="m86.4 95.5c-.5-.2-1-.3-1.5-.3l.8-2.8c.4.1.9.2 1.4.3.4.1.8.3 1.2.5l-.8 2.8c-.3-.2-.7-.4-1.1-.5z" />
        <path d="m86.9 102.7.2-.7c.1.1.2.4.1.7z" />
        <path d="m86.7 103.4.2-.6h.3c-.1.3-.3.6-.5.6z" />
        <path d="m86.1 128.4 2.6-2 2.9-.8-5.5 4.2z" />
        <path d="m86.7 103.4c-.2 0-.2-.4-.1-.7.1-.4.3-.6.5-.6l-.2.7z" />
        <path d="m84.1 98.9c-.1-.2-.1-.4-.1-.6l.9-3.1c.5.1 1 .2 1.5.3.4.1.8.3 1.1.5l-.9 3.3v.1z" />
        <path d="m86.2 53.4c-.2-.3-.3-.7-.3-1.2 0-.6.3-1.2.7-1.6.4.1.7.7.7 1.4 0 .8-.4 1.4-.9 1.4z" />
        <path
            d="m88.1 54.5c-.8 0-1.5-.5-1.9-1.1h.2c.5 0 .9-.6.9-1.4 0-.7-.3-1.2-.7-1.4.4-.4 1-.6 1.6-.6.4 0 .8.1 1.1.4.2.1.4.3.5.4-.3.2-.5.7-.5 1.3 0 .7.3 1.3.7 1.4-.4.6-1.1 1-1.9 1z" />
        <path d="m86.1 105.8.6-2.5c.2 0 .4-.2.5-.6h1.1c0 .1 0 .2-.1.3-.4 1.8-1.4 3-2.1 2.8z" />
        <path d="m84.9 99.6c-.3-.2-.6-.4-.7-.7l2.4.5v.2s0 .1-.1.1v.1c-.4.2-1 .2-1.6-.2z" />
        <path d="m86.1 128.4v1.4h-11.6l6.1-1.5z" />
        <path d="m86.1 128.4-5.5-.1 8.1-1.9z" />
        <path
            d="m85.5 102.4c.5-1.7 1.5-2.9 2.2-2.7l-.7 2.5c-.1 0-.4.2-.4.6-.1.4-.1.7.1.7l-.6 2.5c-.8-.4-1.1-1.9-.6-3.6z" />
        <path
            d="m84.7 53.2c.1-.4.2-.9.3-1.4 0-.4.1-.8 0-1.2l1.2.1c.1-.1.2-.1.3-.1h.2c-.4.4-.7 1-.7 1.6 0 .4.1.8.3 1.2z" />
        <path d="m84.6 125.1v1.9l-7.6-.1z" />
        <path d="m84.6 124.6v.5l-7.6 1.8v-1.5z" />
        <path d="m84.5 118.1.1 6.5-7.6.8-.1-7.4z" />
        <path d="m84.3 75.7c.1.5.1 1.1 0 1.7-.4 2.2-2.2 3.7-4 3.3l1.2-5.8z" />
        <path d="m84.3 75.7-2.9-.8.4-2.1c1.3.2 2.2 1.4 2.5 2.9z" />
        <path
            d="m82.5 104.5c-1-.2-1.4-1.7-1-3.3.4-1.5 1.5-2.6 2.5-2.4h.1c.2.3.4.5.7.7.6.3 1.3.3 1.6 0v-.1s0 0 .1-.1c0-.1 0-.1 0-.2l1.1.2c-.8-.2-1.8 1-2.2 2.8-.5 1.7-.2 3.3.6 3.5l-1-.4c.1-.5-.5-1.1-1.2-1.2-.5-.1-1 .1-1.3.3z" />
        <path d="m82.5 104.5c.3-.3.8-.4 1.3-.3.8.1 1.3.6 1.2 1.2v.1z" />
        <path d="m83.7 116c-.7-.1-1.2-.5-1.2-.9v-.6l.1-.1 2.6-.1v.8c0 .1.1.2.1.3v.1.1c-.3.2-.9.5-1.6.4z" />
        <path d="m84.5 118.1h-7.6l5.5-3.6v.6c.1.4.6.8 1.3.9s1.3-.1 1.5-.5v-.1s0 0 0-.1 0-.2 0-.3v-.8l4.2-.1v.1z" />
        <path d="m82.5 104.5 2.5.9.1 8.8-2.6.1-.1.1v-9c-.1-.1-.1-.2-.1-.4s.1-.3.2-.5z" />
        <path d="m81.8 72.7-.4 2.1-2.7-.8c.8-.9 2-1.5 3.1-1.3z" />
        <path d="m75 71 6.8 1.7c-1.1-.2-2.3.3-3.1 1.3l-6.7-2c.8-.8 1.9-1.2 3-1z" />
        <path d="m81.6 50.4 3.3.3v1.2c0 .5-.1 1-.3 1.4l-3.3-.2c.1-.4.2-.9.3-1.4s.1-.9 0-1.3z" />
        <path d="m81.4 74.9-1.2 5.9-.4-.1c-1.5-.5-2.4-2.5-2-4.5.2-.8.5-1.4.9-2z" />
        <path d="m79.8 80.6.4.1c-.1 0-.2 0-.4-.1z" />
        <path d="m78.2 50.1 3.4.3v1.3c0 .5-.1 1-.3 1.4l-3.4-.3c.1-.4.3-1 .3-1.5.1-.5.1-.9 0-1.2z" />
        <path d="m80.6 128.3-6.2-.1 2.6-2.8v1.5l7.6.1 4.5-2.8.4-.1h2l-2.8 2.3z" />
        <path d="m75.1 37.5c1.4.3 1.4 2.2 1 4.5-.4 2.2-.9 3.9-2.2 3.9z" />
        <path d="m75.1 49.8 3.2.3v1.1c-.1.6-.2 1.1-.3 1.5l-3.1-.2c.1-.4.2-.9.2-1.3 0-.5 0-1 0-1.4z" />
        <path d="m73.1 52.3.4-2.6 1.6.1v1.3c0 .5-.1.9-.2 1.3z" />
        <path d="m74.4 128.2 6.2.1-6.1 1.5z" />
        <path d="m75.1 49.8-1.6-.1.2-1.6c.2-.1.3-.2.5-.2.4 0 .8.8.9 1.9z" />
        <path
            d="m72 42.9c.5-.2.7-.9.4-1.6-.1-.3-.3-.5-.5-.7.5-2 1.9-3.3 3.1-3.1l-1.1 8.4c-.1 0-.2 0-.3 0-1.1-.2-1.8-1.4-2-2.9.2 0 .3 0 .4-.1z" />
        <path
            d="m73.8 74.7-2.2.3c-.1-.5-.3-.9-.6-1.2.2-.7.5-1.2 1-1.7l6.7 2c-.4.6-.7 1.2-.9 2-.4 2.1.5 4 2 4.5l-6.4-1.9c-.6-.1-1.1-.4-1.5-.9 0-.1 0-.1 0-.2l2-.3c.5 0 1-.5 1.1-1.3s-.3-1.4-.9-1.5c-.1.1-.2.1-.3.2z" />
        <path
            d="m74.1 47.9c-.2 0-.3.1-.5.2l.3-2.2c1.3 0 1.8-1.7 2.2-3.9.4-2.3.4-4.2-1-4.4v-.3l25.4 5.3-1 6.2-9.5 1.9c-.1 0-.1.1-.2.1-.1-.2-.3-.3-.5-.4-.3-.2-.7-.3-1.1-.4-.6 0-1.2.2-1.6.6 0 0-.1 0-.2 0s-.2.1-.3.1l-1.2-.1-3.3-.3-3.4-.3-3.2-.3c0-1-.4-1.8-.9-1.8z" />
        <path d="m74.8 52.5c-.3 1-.8 1.7-1.3 1.7-.2 0-.5-.3-.6-.7l.2-1.1z" />
        <path
            d="m73.5 54.1c.5.1 1-.6 1.3-1.7l3.1.3 3.4.3 3.3.3 1.6.1c.4.6 1.1 1.1 1.9 1.1s1.5-.4 1.9-1h.1c.1 0 .2 0 .3-.1l.3-.1v.2l.2 1.9 5.8-1.2 2-.4-3.6 21.3-6.5-1.2c-1.1-.2-2.2.7-2.9 2.2l-1.4-.4c-.2-1.5-1.1-2.7-2.4-3l-6.8-1.7c-1.1-.2-2.2.2-3 1.1l-1.6-.5 2.5-18.2c.1.4.3.7.5.7z" />
        <path d="m71.9 77.7c0-.4 0-.8 0-1.3s-.1-.9-.3-1.3l2.2-.3c.1-.1.2-.1.4-.1.6.1.9.7.9 1.5s-.5 1.4-1.1 1.3z" />
        <path d="m72.4 41.3c.3.7.1 1.5-.4 1.7-.1 0-.2.1-.3 0-.1-.5 0-1.1.1-1.7 0-.2.1-.4.1-.6.2.1.4.3.5.6z" />
        <path
            d="m71.3 51c.1-.3.2-.6.2-1 .1-.2.3-.3.4-.4l1.5.1-.4 2.7-.8-.1c-.1.1-.1.1-.2.1 0 0 0 0-.1 0h-.1c-.3-.1-.6-.7-.6-1.4z" />
        <path d="m71.9 77.7v.2c-.1-.1-.1-.1-.2-.2z" />
        <path d="m71.7 77.7c-.6-.7-.9-1.6-.9-2.6l.8-.1c.1.4.2.9.3 1.3.1.5.1.9 0 1.3z" />
        <path d="m71.3 51c0-.4.1-.7.2-1 0 .3-.1.6-.2 1z" />
        <path d="m71 74.2c0-.1.1-.3.1-.4.2.3.4.7.6 1.2l-.8.1c0-.3 0-.6.1-.9z" />
        <path d="m71.7 77.7-2.7.4c0-.4 0-.8 0-1.3s-.1-1-.3-1.4l2.2-.3c0 1 .3 1.9.8 2.6z" />
        <path
            d="m68.6 50.1-3.2-4c.6-.4 1.2-.6 1.9-.6s1.5.1 2.1.5c1.5.8 2.2 2.4 2.1 4-.1.2-.2.6-.2 1-.1.2-.1.3-.2.5-1.1 2-3.5 2.7-5.4 1.6-1.3-.7-2.1-2.1-2.1-3.5z" />
        <path d="m66.1 78.6c0-.4 0-.8 0-1.3s-.1-1-.3-1.4l2.9-.4c.1.4.2.9.3 1.4s.1.9 0 1.3z" />
        <path d="m63.1 79c0-.4 0-.8 0-1.3s-.2-1-.3-1.4l2.9-.4c.1.4.2.9.3 1.4s.1.9 0 1.3z" />
        <path d="m63.1 77.8c.1.4.1.9 0 1.3l-2.9.4c0-.4 0-.8 0-1.2-.1-.5-.2-1-.3-1.5l2.9-.4c.2.3.3.8.3 1.4z" />
        <path d="m56.9 80s-.1 0-.1.1l-.6-2.4c.1-.2.3-.3.5-.4l3.2-.5c.1.4.3.9.3 1.5 0 .4.1.9 0 1.2z" />
        <path d="m56.2 77.6.6 2.4s-.1 0-.2 0c0 0 0 0-.1 0h-.1c-.4-.1-.7-.7-.6-1.4.1-.4.2-.7.4-1z" />
        <path d="m54.5 81.6 2.5-.4c.1.7-1 1.6-2.6 1.9l-.5-1.1c.4-.1.6-.3.6-.4z" />
        <path d="m53.9 82-.1-.3.7-.1c0 .1-.2.3-.6.4z" />
        <path d="m53.3 44.7c-.3-.6-.2-1.3.2-1.5.3.2.6.6.8 1 .2.5.2 1.1 0 1.6-.4-.2-.8-.6-1-1.1z" />
        <path d="m53.8 81.7.1.3c-.4.1-.7 0-.7-.2z" />
        <path
            d="m54.5 45.7c-.1 0-.2 0-.2 0 .2-.5.2-1 0-1.6-.2-.4-.4-.7-.7-1h.1.1.3.3l16.8-2.6c.2-.1.4-.1.6 0 .1.1.2.1.3.2-.1.2-.1.4-.1.7-.1.6-.1 1.2-.1 1.7h-.1l-4.7.8-12.4 2z" />
        <path d="m53.8 81.7-.6.1c0-.2.3-.3.6-.4.4-.1.7 0 .7.2z" />
        <path d="m51.3 46.9c-.5-.2-1-.6-1.2-1.2-.2-.4-.2-.8-.1-1.2l.2-.1c.4-.2 1 .3 1.3 1 .2.7.1 1.3-.2 1.5z" />
        <path
            d="m50.7 82.1c0-.7 1.3-1.5 3-1.8 1.8-.3 3.3.1 3.4.9l-2.5.4c0-.2-.3-.2-.7-.2-.4.1-.6.2-.6.4l-2.5.4c-.1 0-.1-.1-.1-.1z" />
        <path
            d="m53.6 80.3c-1.7.3-2.9 1.1-3 1.8l-.1-1c.5-.1.8-.9.6-1.6-.1-.5-.5-.9-.8-1-.2-1 1-2 2.6-2.2 1.6-.3 3 .3 3.2 1.3v.2c-.2.2-.3.6-.3 1 0 .7.2 1.3.6 1.4h.1.1.2l.3 1.1c-.2-.9-1.7-1.3-3.5-1z" />
        <path d="m50.7 82.2 2.5-.4c0 .2.4.2.7.2l.5 1.1c-.1 0-.2 0-.3.1-1.8.2-3.3-.2-3.4-1z" />
        <path d="m50.6 81.1-.2-2.7c.4.1.7.5.8 1 .2.9-.1 1.6-.6 1.7z" />
        <path
            d="m50 44.5c.1-.7.6-1.4 1.4-1.7.7-.3 1.5-.2 2.1.3-.3.3-.4.9-.2 1.5.2.5.6.9.9 1-.1.2-.2.4-.3.6-.2.3-.6.6-.9.7-.6.2-1.2.2-1.7 0 .3-.2.4-.9.1-1.5-.3-.7-.9-1.1-1.3-1z" />
        <path d="m41.1 82.6 8.5-3.9c.1-.1.2-.2.3-.2h.5l.2 2.7-8 3.8-.7-1.9z" />
        <path d="m49.7 47.6-3 1.4c-.1-.4-.3-.8-.5-1.2s-.5-.9-.7-1.2l3-1.4c.3.4.5.8.8 1.2.2.4.3.8.4 1.2z" />
        <path
            d="m49.3 46.4c-.2-.5-.5-.9-.7-1.2l1.4-.7c-.1.4 0 .8.1 1.2.2.6.7 1 1.2 1.2 0 0-.1.1-.1.1-.1.1-.2 0-.3 0l-1.1.5c-.2-.3-.3-.7-.5-1.1z" />
        <path d="m46.8 49-3.1 1.5c-.1-.3-.2-.7-.4-1-.2-.5-.5-.9-.8-1.3l3.1-1.5c.3.3.5.8.7 1.2.2.3.3.7.5 1.1z" />
        <path d="m44.1 88.9v-.1l.3.6-.7-.4z" />
        <path d="m43.7 50.4-2.9 1.4c-.1-.4-.3-.8-.5-1.2s-.5-.8-.7-1.2l2.8-1.3c.3.4.6.8.8 1.3.3.3.4.7.5 1z" />
        <path d="m41.7 85.4h-.1-.1c-.4 0-.9-.5-1.1-1.1-.2-.7 0-1.3.3-1.5l.3-.1.7.5.8 1.9-.6.3c0-.1-.1-.1-.2 0z" />
        <path
            d="m40.8 51.8-2.8 1.4c-.2 0-.4-.1-.5-.2-.1-.3-.3-.6-.5-.8-.2-.6-.2-1.3.1-1.5h.1.3l2.3-1.1c.3.3.5.7.7 1.2.1.2.2.6.3 1z" />
        <path
            d="m38.9 86.2-2.6-7.2 4.8 3.5-.3.2c-.4.2-.5.9-.3 1.5.2.7.7 1.1 1.1 1.1h.1.1c.1 0 .2-.1.2-.2l.6-.3 1.6 3.9h-.1l-.4.2z" />
        <path d="m36.4 79 2.5 7.2-6.1 2.3-3.4-6.8z" />
        <path d="m32.8 88.5 6.1-2.3 4.8 2.8.7.4-9.2 3.5-1-1.5z" />
        <path d="m37.4 52.9c-.2-.2-.4-.5-.5-.8.2.2.4.5.5.8z" />
        <path
            d="m36.9 52.1c.1.4.3.6.6.8.7 1.4.6 3.2-.5 4.5-1 1.1-2.4 1.6-3.8 1.3l1.6-4.9-4.6 2.3c-.5-1.3-.2-2.8.7-4 1.5-1.7 4-1.9 5.7-.4l.4.4z" />
        <path d="m34.2 91.4 1 1.5-.4-.3z" />
        <path d="m34.2 91.4.6 1.2-4.2-3.2 1.8-.7z" />
        <path d="m34.2 91.4-1.8-2.7.4-.2z" />
        <path d="m32.6 93 3.1 1.9-1.4.6z" />
        <path d="m29.4 81.7 3.4 6.8-.4.2-4.4-6.5z" />
        <path d="m32.4 88.7-1.8.7-2.6-7.2z" />
        <path d="m28 86.1 4.6 6.9-2.8-1.7z" />
        <path d="m28 86.1 1.8 5.2-1.3.4-4-10.9z" />
        <path d="m29.8 91.3 2.8 1.7 1.7 2.5-5.8-3.8z" />
        <path d="m35 92.9.7 2-3.1-1.9-4.6-6.9-2.1-5.9 3.5 1.5-1.4.5 2.6 7.2 4.2 3.2z" />
        <path d="m25.9 80.2 2.1 5.9-3.5-5.3z" />
    </g>
    <g fill="none">
        <path d="m102 17.7-2.8 16.8-4.8-1-3.5-.8-7.2-1.5 1.4-8.3" stroke="#000" strokeLinejoin="round" />
        <path d="m85.1 22.8 1.4-8.4" stroke="#000" strokeLinejoin="round" />
        <path d="m90.9 32.7-.4 2.6-.3 2c-.1.4.7.8 1.7.9 1 .2 1.8 0 1.9-.3l.3-1.9.4-2.5" stroke="#000"
            strokeLinejoin="round" />
        <path d="m99.2 34.5 5.9-2.9 2.7-16.1-5.8 2.3" stroke="#000" strokeLinejoin="round" />
        <path d="m99 13.7 8.8 1.8-5.8 2.2" stroke="#000" strokeLinejoin="round" />
        <path d="m86.5 14.4 9-1.4 2.3.5" stroke="#000" strokeLinejoin="round" />
        <path d="m102 17.7-15.5-3.3" stroke="#000" strokeLinejoin="round" />
        <path d="m74.5 129.8h11.6l5.5-4.2" stroke="#000" strokeLinejoin="round" />
        <path d="m77 125.4-2.6 2.8 6.2.1 5.5.1 2.6-2 2.8-2.3h-2" stroke="#000" strokeLinejoin="round" />
        <path d="m89.5 123.9-.1-9.8" stroke="#000" strokeLinejoin="round" />
        <path d="m89.4 114.1-4.2.1" stroke="#000" strokeLinejoin="round" />
        <path d="m89.4 114.2v-.1" stroke="#6d6e71" strokeLinejoin="round" strokeWidth="2" />
        <path d="m82.4 114.4-5.5 3.6 7.6.1 4.9-3.9" stroke="#000" strokeLinejoin="round" />
        <path d="m77 126.9 7.6.1 4.5-2.8.4-.3" stroke="#000" strokeLinejoin="round" />
        <path
            d="m82.5 104.5c-.1.1-.2.3-.2.4 0 .2 0 .3.1.4v9 .6c.1.4.6.8 1.3.9s1.3-.1 1.5-.5v-.1s0 0 0-.1 0-.2 0-.3v-.8l-.1-8.8"
            stroke="#000" strokeLinejoin="round" />
        <path d="m91.1 83.4 5.5 1.4" stroke="#000" strokeLinejoin="round" />
        <path d="m85.7 76.1c-.2.4-.4.9-.5 1.4-.5 2.3.3 4.4 1.7 4.7l1.6.4" stroke="#000" strokeLinejoin="round" />
        <path d="m71.7 77.7.2.2c.4.4.9.7 1.6.9l6.4 1.9" stroke="#000" strokeLinejoin="round" />
        <path d="m72 72.1c-.4.5-.7 1-.9 1.7 0 .1-.1.3-.1.4-.1.3-.1.6-.1.9" stroke="#000" strokeLinejoin="round" />
        <path d="m84.3 75.7c.1.5.1 1.1 0 1.7-.4 2.2-2.2 3.7-4 3.3-.1 0-.2-.1-.4-.1-1.5-.5-2.4-2.5-2-4.5.2-.8.5-1.4.9-2"
            stroke="#000" strokeLinejoin="round" />
        <path d="m98.7 75.7c1.1.3 1.6 2.5 1.1 5s-1.9 4.4-3 4.2h-.1c-1-.4-1.4-2.5-.9-5 .2-1.1.6-2 1-2.7" stroke="#000"
            strokeLinejoin="round" />
        <path d="m87.7 99.6-1.1-.2" stroke="#000" strokeLinejoin="round" />
        <path d="m84.1 98.9h-.1c-.9-.2-2 .8-2.5 2.4-.4 1.6 0 3 1 3.3l2.5.9 1 .4" stroke="#000" strokeLinejoin="round" />
        <path d="m87.7 99.6c.7.2 1 1.6.6 3.2 0 .1 0 .2-.1.3-.4 1.7-1.4 3-2.2 2.8" stroke="#000"
            strokeLinejoin="round" />
        <path d="m86.7 103.4c-.2 0-.2-.4-.1-.7.1-.4.3-.6.5-.6.1.1.2.4.1.7-.1.4-.3.6-.5.6" stroke="#000"
            strokeLinejoin="round" />
        <path d="m110.5 39-2.3 12.5-.1.3-3.7 19.8-5.7 4.1-.1.1-2 1.4-2.1 1.5" stroke="#000" strokeLinejoin="round" />
        <path d="m75.1 37.5c-1.3-.2-2.6 1.1-3.1 3.1" stroke="#000" strokeLinejoin="round" />
        <path d="m71.7 43c.2 1.5.9 2.7 2 2.9h.3" stroke="#000" strokeLinejoin="round" />
        <path d="m99.5 48.7 1.1-6.2" stroke="#000" strokeLinejoin="round" />
        <path d="m98.7 53.7.3-2.1" stroke="#000" strokeLinejoin="round" />
        <path d="m73.1 52.3-.2 1.2-2.5 18.2 1.6.4 6.7 2 2.7.8 2.9.8 1.4.4 8.8 2.6.6-3.6 3.6-21.4" stroke="#000"
            strokeLinejoin="round" />
        <path d="m75.1 37.2v.3l-1.2 8.4-.3 2.2-.2 1.6" stroke="#000" strokeLinejoin="round" />
        <path d="m54.5 48.9-.5-2.7" stroke="#6d6e71" strokeLinejoin="round" strokeWidth=".8" />
        <path d="m67 43.7.3 1.9" stroke="#6d6e71" strokeLinejoin="round" strokeWidth=".8" />
        <path
            d="m37.4 52.9c.7 1.4.6 3.2-.5 4.5-1 1.1-2.4 1.6-3.8 1.3l1.6-4.9-4.6 2.3c-.5-1.3-.2-2.8.7-4 1.5-1.7 4-1.9 5.7-.4l.4.4"
            stroke="#000" strokeLinejoin="round" />
        <path d="m68.3 38.7 2.8-.5.5 2.2" stroke="#000" strokeLinejoin="round" />
        <path d="m54.1 42.8-.5-1.8 5.9-.9" stroke="#6d6e71" strokeLinejoin="round" strokeWidth=".8" />
        <path d="m59.5 40.1 8.8-1.4" stroke="#000" strokeLinejoin="round" />
        <path
            d="m53.5 43.1h.1.1.3.3l16.8-2.6c.2-.1.4-.1.6 0 .1.1.2.1.3.2.2.2.4.4.5.7.3.7.1 1.5-.4 1.7-.1 0-.2.1-.3 0h-.1l-4.7.8-12.4 2c-.1 0-.2 0-.2 0"
            stroke="#000" strokeLinejoin="round" />
        <path
            d="m51.3 46.9s-.1.1-.1.1c-.1.1-.2 0-.3 0l-1.1.5-3 1.4-3.1 1.5-2.9 1.4-2.8 1.4c-.2 0-.4-.1-.5-.2-.2-.2-.4-.5-.5-.8-.2-.6-.2-1.3.1-1.5h.1.3l2.3-1.1 2.8-1.3 3.1-1.5 3-1.4 1.4-.7"
            stroke="#000" strokeLinejoin="round" />
        <path
            d="m53.5 43.1c-.6-.4-1.4-.6-2.1-.3s-1.2 1-1.4 1.7c-.1.4 0 .8.1 1.2.2.6.7 1 1.2 1.2s1.1.3 1.7 0c.4-.2.7-.4 1-.7.1-.2.2-.4.3-.6.2-.5.2-1 0-1.6-.2-.4-.4-.7-.7-1"
            stroke="#000" strokeLinejoin="round" />
        <path
            d="m39.1 53.2c.5.6 1.1 1 1.5.8.5-.2.5-1.1.2-2.1-.1-.4-.3-.8-.5-1.2s-.5-.8-.7-1.2c-.6-.9-1.3-1.3-1.8-1.1-.3.2-.4.8-.3 1.5"
            stroke="#6d6e71" strokeWidth=".8" />
        <path
            d="m42 52c.5.6 1.1 1 1.5.8.5-.2.5-1.2.2-2.3-.1-.3-.2-.7-.4-1-.2-.5-.5-.9-.8-1.3-.6-.8-1.2-1.1-1.7-.9-.3.2-.4.9-.3 1.5"
            stroke="#6d6e71" strokeWidth=".8" />
        <path
            d="m45.1 50.4c.5.6 1.1 1 1.5.8.5-.2.5-1.1.2-2.2-.1-.4-.3-.8-.5-1.2s-.5-.9-.7-1.2c-.6-.8-1.3-1.3-1.8-1.1-.3.2-.4.8-.3 1.5"
            stroke="#6d6e71" strokeWidth=".8" />
        <path
            d="m48.1 49c.6.6 1.1 1 1.5.8.5-.2.5-1.1.2-2.2-.1-.4-.2-.7-.4-1.1-.2-.5-.5-.9-.7-1.2-.6-.8-1.3-1.3-1.8-1-.3.2-.4.9-.3 1.5"
            stroke="#6d6e71" strokeWidth=".8" />
        <path d="m90.5 35.3-2.7-.5-12.7 2.4 25.5 5.3 9.9-3.5-16.5-3" stroke="#000" strokeLinejoin="round" />
        <path d="m85.1 22.9v-.1l.6-3.6" stroke="#000" strokeLinejoin="round" />
        <path d="m99 13.7.8-8.5-2 8.3-.3 1.2c0 .2.3.4.6.5.4.1.7 0 .7-.2z" stroke="#000" strokeLinejoin="round" />
        <path d="m88.9 47.6.4 2.8" stroke="#6d6e71" strokeLinejoin="round" strokeWidth=".8" />
        <path d="m102.4 48.1-.5-2.7" stroke="#6d6e71" strokeLinejoin="round" strokeWidth=".8" />
        <path
            d="m71.5 50c.2-1.6-.6-3.2-2.1-4-.7-.4-1.4-.5-2.1-.5s-1.3.3-1.9.6l3.2 4-5.1-.5c0 1.4.8 2.8 2.1 3.5 1.9 1.1 4.4.3 5.4-1.6.1-.2.2-.3.2-.5"
            stroke="#000" strokeLinejoin="round" />
        <path d="m103.6 47.9c.4-2.3 1-4.1 2.4-3.9 1.2.2 2 1.7 2 3.5" stroke="#000" strokeLinejoin="round" />
        <path d="m107.6 49.8c-.6 1.7-1.8 2.8-3 2.6-.8-.1-1.1-.8-1.2-1.7" stroke="#000" strokeLinejoin="round" />
        <path d="m105.4 52.4 2.7-.6h.1v-.3l-.3-1.9" stroke="#6d6e71" strokeLinejoin="round" strokeWidth=".8" />
        <path d="m104.7 52.5.5-.1" stroke="#6d6e71" strokeLinejoin="round" strokeWidth=".8" />
        <path d="m90.7 53.5.2 1.8 5.8-1.2" stroke="#6d6e71" strokeLinejoin="round" strokeWidth=".8" />
        <path d="m98.7 53.7 6-1.2.5-.1h.2" stroke="#6d6e71" strokeLinejoin="round" strokeWidth="2" />
        <path d="m96.7 54.1 2-.4" stroke="#6d6e71" strokeLinejoin="round" strokeWidth="2" />
        <path
            d="m90 53.5h.1c.1 0 .2 0 .3-.1l.3-.1 8.3-1.7 4.4-.9 3.9-.8c.1 0 .2 0 .4-.1.1 0 .2-.1.3-.2.2-.2.4-.6.4-1.1 0-.4-.1-.7-.3-1s-.4-.4-.7-.4c-.2 0-.3.1-.4.1l-3.4.7-1.2.3-2.9.6-9.5 1.9c-.1 0-.1.1-.2.1"
            stroke="#000" strokeLinejoin="round" />
        <path
            d="m86.6 50.6s-.1 0-.2 0-.2.1-.3.1l-1.2-.1-3.3-.3-3.4-.3-3.2-.3-1.6-.1-1.5-.1c-.2 0-.3.2-.4.4s-.2.6-.2 1c0 .7.2 1.3.6 1.4h.1.1c.1 0 .2 0 .2-.1l.8.1 1.8.1 3.1.3 3.4.3 3.3.3 1.6.1"
            stroke="#000" strokeLinejoin="round" />
        <path
            d="m89.8 50.8c.4.4.6.9.5 1.5 0 .4-.1.8-.4 1.2-.4.6-1.1 1-1.9 1s-1.5-.5-1.9-1.1c-.2-.3-.3-.7-.3-1.2 0-.6.3-1.2.7-1.6s1-.6 1.6-.6c.4 0 .8.1 1.1.4.3.1.5.2.6.4z"
            stroke="#000" strokeLinejoin="round" />
        <path
            d="m73 49.2c.2-.4.4-.8.6-1.1.2-.1.3-.2.5-.2.5 0 .9.8 1 1.9v1.3c0 .5-.1.9-.2 1.3-.3 1-.8 1.7-1.3 1.7-.2 0-.5-.3-.6-.7-.1-.2-.2-.4-.2-.6"
            stroke="#6d6e71" strokeWidth=".8" />
        <path d="m76.2 49.2c.3-.7.7-1.3 1.1-1.3.5.1.9.9 1 2.1v1.1c-.1.6-.2 1.1-.3 1.5-.3.9-.8 1.5-1.2 1.5s-.7-.6-.9-1.3"
            stroke="#6d6e71" strokeWidth=".8" />
        <path d="m79.5 49.6c.3-.7.7-1.3 1.1-1.3.5 0 .9.9 1 2v1.3c0 .5-.1 1-.3 1.4-.3 1-.8 1.7-1.3 1.6-.4 0-.7-.6-.8-1.3"
            stroke="#6d6e71" strokeWidth=".8" />
        <path d="m82.9 49.9c.3-.7.7-1.3 1.1-1.3.5.1.9.9 1 2v1.2c0 .5-.1 1-.3 1.4-.3 1-.8 1.6-1.3 1.6-.4 0-.7-.6-.8-1.3"
            stroke="#6d6e71" strokeWidth=".8" />
        <path
            d="m91.1 83.4.2-.7c.3-.5-.1-1.1-.7-1.5-.7-.4-1.4-.3-1.7.2-.1.1-.1.3-.1.4l-.3 1-.3 1.1-.8 2.8-.8 2.9-.8 2.8-.8 2.9-.9 3.1c0 .2 0 .4.1.6.2.3.4.5.7.7.6.3 1.3.3 1.6 0v-.1s0 0 .1-.1c0-.1 0-.1 0-.2v-.1l.9-3.3.8-2.8.8-2.8.8-2.8.8-2.9z"
            stroke="#000" strokeLinejoin="round" />
        <path
            d="m90.5 86.8c.8 0 1.4-.1 1.6-.5.2-.5-.4-1.1-1.4-1.7-.4-.2-.8-.4-1.2-.5-.5-.1-.9-.2-1.3-.3-1.1-.1-1.9.1-2 .5s.3.9.9 1.3"
            stroke="#6d6e71" strokeWidth=".8" />
        <path
            d="m89.7 89.6c.8 0 1.5-.1 1.6-.5.2-.5-.4-1.1-1.4-1.7-.3-.2-.7-.4-1.2-.5-.5-.2-.9-.3-1.4-.3-1-.1-1.8.1-2 .5-.1.4.3.9.9 1.3"
            stroke="#6d6e71" strokeWidth=".8" />
        <path
            d="m88.9 92.5c.8 0 1.4-.1 1.6-.5.2-.5-.4-1.2-1.4-1.7-.3-.2-.7-.4-1.2-.5-.5-.2-1-.3-1.4-.3-1-.1-1.8.1-2 .5-.1.4.3.9.9 1.3"
            stroke="#6d6e71" strokeWidth=".8" />
        <path
            d="m88.1 95.3c.8 0 1.5-.1 1.6-.5.2-.5-.4-1.2-1.4-1.7-.3-.2-.7-.3-1.1-.5-.5-.2-1-.3-1.4-.3-1-.1-1.8.1-1.9.5s.3.9.9 1.3"
            stroke="#6d6e71" strokeWidth=".8" />
        <path
            d="m87.4 98.2c.8 0 1.5-.1 1.6-.5.2-.5-.4-1.2-1.4-1.7-.3-.2-.7-.3-1.1-.5-.5-.2-1-.3-1.5-.3-1-.1-1.8.1-1.9.5s.3.9.9 1.3"
            stroke="#6d6e71" strokeWidth=".8" />
        <path d="m89.2 105.7-.1-2.9h-.7-1.2l-.3-.1" stroke="#6d6e71" strokeLinejoin="round" strokeWidth=".8" />
        <path d="m87.6 120.4 1.9.1-.1-6.3v-.1l-.2-8.3" stroke="#6d6e71" strokeLinejoin="round" strokeWidth="2" />
        <path d="m89.4 114.6v-.4-.1l-.2-8.3v-.1" stroke="#6d6e71" strokeLinejoin="round" strokeWidth="2" />
        <path d="m77 125.4v1.5" stroke="#000" strokeLinejoin="round" />
        <path d="m76.9 118 .1 7.4" stroke="#000" strokeLinejoin="round" />
        <path d="m84.5 118.1.1 6.5v.5 1.9" stroke="#000" strokeLinejoin="round" />
        <path d="m86.1 128.4v1.4" stroke="#000" strokeLinejoin="round" />
        <path d="m91.5 124.1.1 1.5" stroke="#000" strokeLinejoin="round" />
        <path d="m74.4 128.2.1 1.6" stroke="#000" strokeLinejoin="round" />
        <path d="m24.5 80.8 4 10.9 5.8 3.8" stroke="#000" strokeLinejoin="round" />
        <path d="m29.4 81.7-3.5-1.5 2.1 5.9 1.8 5.2 2.8 1.7 3.1 1.9-.7-2" stroke="#000" strokeLinejoin="round" />
        <path d="m35.2 92.9 9.2-3.5" stroke="#000" strokeLinejoin="round" />
        <path d="m41.1 82.6-4.7-3.6 2.5 7.2 4.8 2.8.7.4-.3-.6-1.6-3.9" stroke="#000" strokeLinejoin="round" />
        <path d="m28 82.2 2.6 7.2 4.2 3.2.4.3" stroke="#000" strokeLinejoin="round" />
        <path
            d="m50.4 78.5c-.2-.1-.3-.1-.5 0-.1 0-.2.1-.3.2l-8.5 3.9-.3.2c-.4.2-.5.9-.3 1.5.2.7.7 1.1 1.1 1.1h.1.1c.1 0 .2-.1.2-.2l.6-.3 8-3.8"
            stroke="#000" strokeLinejoin="round" />
        <path d="m57 81.2-.2-1.2" stroke="#000" strokeLinejoin="round" />
        <path d="m56.2 77.6v-.2c-.2-1-1.6-1.5-3.2-1.3-1.6.3-2.7 1.3-2.6 2.2l.2 2.7.1 1" stroke="#000"
            strokeLinejoin="round" />
        <path
            d="m54.4 83c-.1 0-.2 0-.3.1-1.7.3-3.3-.1-3.4-.9v-.1c0-.7 1.3-1.5 3-1.8 1.8-.3 3.3.1 3.4.9.1.7-1.1 1.5-2.7 1.8z"
            stroke="#000" strokeLinejoin="round" />
        <path d="m53.9 82c-.4.1-.7 0-.7-.2s.3-.3.6-.4c.4-.1.7 0 .7.2 0 .1-.2.3-.6.4z" stroke="#000"
            strokeLinejoin="round" />
        <path
            d="m71.9 77.7 2-.3c.5 0 1-.5 1.1-1.3s-.3-1.4-.9-1.5c-.1 0-.3 0-.4.1l-2.2.3-.8.1-2.2.3-2.9.4-2.9.4-2.9.4-3.2.5c-.2 0-.3.2-.5.4s-.3.6-.3 1c0 .7.2 1.3.6 1.4h.1.1.2.1l3.4-.5 2.9-.4 2.9-.4 2.9-.4 2.7-.4h.2"
            stroke="#000" strokeLinejoin="round" />
        <path d="m71.9 77.7c0-.4 0-.8 0-1.3s-.1-.9-.3-1.3c-.1-.5-.3-.9-.6-1.2-.2-.3-.5-.5-.7-.4-.4 0-.7.7-.8 1.3"
            stroke="#6d6e71" strokeWidth=".8" />
        <path d="m69.9 78.4c.3.7.7 1.3 1.1 1.2.5-.1.8-.7.9-1.7 0-.1 0-.1 0-.2" stroke="#6d6e71" strokeWidth=".8" />
        <path
            d="m66.9 78.8c.3.7.7 1.3 1.1 1.3.5-.1.9-.9 1-2 0-.4 0-.8 0-1.3s-.1-1-.3-1.4c-.3-1-.8-1.7-1.3-1.6-.4 0-.7.7-.8 1.3"
            stroke="#6d6e71" strokeWidth=".8" />
        <path
            d="m64 79.3c.3.7.7 1.3 1.1 1.2.5-.1.9-.9 1-2 0-.4 0-.8 0-1.3s-.1-1-.3-1.4c-.3-1-.8-1.6-1.3-1.6-.4 0-.7.6-.8 1.3"
            stroke="#6d6e71" strokeWidth=".8" />
        <path
            d="m61.1 79.8c.3.7.7 1.3 1.1 1.2.5 0 .9-.9.9-2 0-.4 0-.8 0-1.3s-.2-1-.3-1.4c-.3-1-.8-1.6-1.3-1.5-.4 0-.7.7-.8 1.3"
            stroke="#6d6e71" strokeWidth=".8" />
        <path
            d="m58.2 80.2c.3.7.7 1.3 1.1 1.2.5 0 .9-.9.9-2 0-.4 0-.8 0-1.2-.1-.5-.2-1-.3-1.5-.3-.9-.8-1.6-1.3-1.5-.4 0-.7.7-.8 1.3"
            stroke="#6d6e71" strokeWidth=".8" />
        <path d="m44.1 88.8 10.6-5-.3-.8-.5-1-.1-.3" stroke="#6d6e71" strokeLinejoin="round" strokeWidth=".8" />
        <path d="m38.1 89.7.6 1.7 5-2.4.4-.1" stroke="#6d6e71" strokeLinejoin="round" strokeWidth=".8" />
        <path d="m44.1 88.8 8-3.8" stroke="#6d6e71" strokeLinejoin="round" strokeWidth="2" />
        <path d="m44.1 88.9v-.1" stroke="#6d6e71" strokeLinejoin="round" strokeWidth=".8" />
        <path d="m36.4 79-7 2.7-1.4.5" stroke="#000" strokeLinejoin="round" />
        <path d="m38.9 86.2-6.1 2.3-.4.2-1.8.7" stroke="#000" strokeLinejoin="round" />
        <path d="m29.8 91.3-1.3.4" stroke="#000" strokeLinejoin="round" />
        <path d="m35.7 94.9-1.4.6" stroke="#000" strokeLinejoin="round" />
        <path d="m25.9 80.2-1.4.6" stroke="#000" strokeLinejoin="round" />
        <path d="m85.7 19.2 15.5 3.6 5.8-2.5-.4 2.6-6 3.5-15.5-3.5" stroke="#000" strokeLinejoin="round"
            strokeWidth=".5" />
        <path d="m89.3 18.7 2.6-.9" stroke="#000" strokeLinejoin="round" strokeWidth=".5" />
        <path d="m97.4 18.7 1.3 1.9" stroke="#000" strokeLinejoin="round" strokeWidth=".5" />
        <path d="m93.5 29.3c-.1.6-.8.9-1.6.8s-1.4-.7-1.3-1.3.8-.9 1.6-.8c.9.2 1.4.7 1.3 1.3z" stroke="#000"
            strokeLinejoin="round" strokeWidth=".5" />
        <path d="m88.9 47.6 2 1.7 1.3-2.3 2 1.7 1.2-2.2 2 1.6 1.3-2.2 2 1.7 1.3-2.3" stroke="#6d6e71"
            strokeLinejoin="round" strokeWidth=".8" />
    </g>
</svg>