<svg height="46" viewBox="0 0 157 46" width="157" xmlns="http://www.w3.org/2000/svg"><g fill="none"><g fill="#1d1d1b"><path d="m26.6878992 15.47068v9.1718988h-5.3611679v-8.3101955c0-2.2846645-1.1246312-3.3112933-2.8793114-3.3112933-.8268595 0-1.654997.3311294-2.4499067 1.2912766.0332277.3643701.0664555.761981.0664555 1.1595919v9.1718988h-5.3611679v-8.3101955c0-2.2846645-1.12590915-3.3112933-2.87931139-3.3112933-.79363179 0-1.62176928.3643701-2.38345129 1.3245173v10.2969715h-5.39439562v-16.05785472h5.39439562v.92690644c1.05945367-.89366569 2.18408483-1.35775899 3.93876503-1.35775899 2.01922415 0 3.74067665.76198186 4.93176325 2.11846157 1.7214525-1.48944278 3.3432218-2.11846157 5.725395-2.11846157 3.8390819-.00127758 6.6519378 2.74620087 6.6519378 7.31552997zm19.1966871 2.4176276h-11.6169287c.3642272 1.6556466 1.4556306 2.9469232 3.6409934 2.9469232 1.1910866 0 1.8863132-.2646477 2.3834513-.8604249h5.4276233c-.9597704 3.1450894-3.938765 5.0986246-7.7113914 5.0986246-5.2627626 0-8.7708451-3.5759411-8.7708451-8.4763994 0-4.8672176 3.4083993-8.44315865 8.3733902-8.44315865 4.7988524 0 8.3733902 3.04664545 8.3733902 7.91258455 0 .6302964 0 1.1928327-.0996832 1.8218506zm-11.5504732-3.0798863h6.6519377c-.2645439-1.8870537-1.4224028-2.6822754-3.2435385-2.6822754-1.8863132.0012785-2.9789946 1.0598696-3.4083992 2.6822754zm25.2198538-1.3897204c-2.6147674.0997224-4.2697644.7939433-5.5273065 2.0200167v9.2038612h-5.3943957v-16.05785471h5.3943957v1.72212821c1.4224028-1.224795 3.1438552-1.98677595 5.5273065-1.98677595z"/><path d="m69.8136633 19.07988-2.2172766 2.3843333v3.17837h-5.39442v-23.50760997h5.39442v13.44204337l5.56048-5.9922667h6.3874066l-6.0896333 6.5560733 6.61871 9.5030634h-6.4206033z"/><path d="m97.847658 8.58472409v16.05785471h-5.3611681v-.8604249c-1.1910865.7952218-2.6147673 1.2912766-4.4013973 1.2912766-4.3362199 0-7.9759354-3.7076257-7.9759354-8.4763994 0-4.8007361 3.6409935-8.44315865 7.9759354-8.44315865 1.78663 0 3.2103108.46409239 4.4013973 1.25803575v-.82718411zm-5.3624462 10.49513771v-4.96694c-1.0262255-1.1263511-2.1508565-1.4229611-3.3099936-1.4229611-2.1840846 0-3.8058545 1.6888874-3.8058545 3.9070704 0 2.2181829 1.6217699 3.9070704 3.8058545 3.9070704 1.1591371 0 2.2837681-.2978886 3.3099936-1.4242397zm25.6173092-3.6091818v9.1718988h-5.361168v-8.3101955c0-2.2846645-1.157859-3.3112933-2.945767-3.3112933-.95977 0-1.985996.4973333-2.912539 1.5226835v10.0988053h-5.394395v-16.05785471h5.394395v1.05986959c1.29077-.96014727 2.681223-1.48944365 4.401397-1.48944365 4.038448-.00127758 6.818077 2.74620087 6.818077 7.31552997zm20.321318-14.33572658v23.50762538h-5.361168v-.7939433c-1.191086.7619811-2.614767 1.224795-4.401397 1.224795-4.33622 0-7.975935-3.6424226-7.975935-8.4431587 0-4.7674952 3.640993-8.40991785 7.975935-8.40991785 1.78663 0 3.210311.46409246 4.401397 1.25803575v-8.34343628zm-5.361168 18.01138988v-4.9669399c-1.026225-1.1263511-2.150857-1.4242397-3.309993-1.4242397-2.184086 0-3.805855 1.6888875-3.805855 3.8738296 0 2.2514238 1.621769 3.9403194 3.805855 3.9403194 1.159136.0012704 2.283768-.2978967 3.309993-1.4229694zm9.002162-16.09109547c0-1.75536899 1.390453-3.04664553 3.143855-3.04664553 1.721452 0 3.143855 1.29127654 3.143855 3.04664553 0 1.72212822-1.423681 3.01340475-3.143855 3.01340475-1.753402 0-3.143855-1.29127653-3.143855-3.01340475zm5.858305 5.52947626v16.05785471h-5.361167v-16.05785471z"/></g><path d="m69.1611565 29.7054301h78.9881705v11.5703491c0 2.4201847-1.961715 4.3826693-4.38095 4.3826693h-74.6072205z" fill="#2a9bcd"/><path d="m79.1819467 41.2883733 1.4284533-4.3270666 1.4284533 4.3270666h1.6995467l2.2938667-7.13184h-1.8663734l-1.3241866 4.4000534-1.50144-4.4000534h-1.4597334v.0208534l-1.50144 4.3896266-1.3241866-4.41048h-1.8663734l2.2938667 7.13184zm9.44656-.0417066v-2.6588h2.8881866v2.6588h1.7621067v-7.0901334h-1.7621067v2.84648h-2.8881866v-2.84648h-1.7621067v7.0901334zm9.47784.1459733c2.1478933 0 3.7640263-1.62656 3.7640263-3.69104s-1.616133-3.69104-3.7640263-3.69104c-2.1374667 0-3.7536 1.62656-3.7536 3.69104s1.6161333 3.69104 3.7536 3.69104zm0-1.6369867c-1.1469334 0-1.97064-.9384-1.97064-2.0540533s.8237066-2.0540533 1.97064-2.0540533c1.1469333 0 1.9706403.9384 1.9706403 2.0540533s-.823707 2.0540533-1.9706403 2.0540533zm10.1034403 1.4910134v-1.5535734h-3.50336v-5.53656h-1.762107v7.0901334zm6.19344 0v-1.53272h-3.5972v-1.2303467h3.138426v-1.50144h-3.138426v-1.2929067h3.5972v-1.53272h-5.359307v7.0901334zm3.84744.1459733c1.772533 0 2.94032-.8862667 2.94032-2.3042933 0-1.21992-.84456-1.7412534-2.137467-2.0227734l-.990533-.2293866c-.53176-.1146934-.81328-.28152-.81328-.6673067 0-.4587733.40664-.7090133 1.011386-.7090133.71944 0 1.053094.3649333 1.146934.8966933h1.772533c-.177253-1.90808-1.887227-2.3564267-3.03416-2.3564267-1.668267 0-2.8152.8966934-2.8152 2.31472 0 1.12608.65688 1.78296 2.054053 2.0853334l1.167787.2606666c.604747.1146934.75072.3649334.75072.6047467 0 .3857867-.34408.6256-1.00096.6256-.834133 0-1.37632-.37536-1.491013-1.00096h-1.762107c.166827 1.75168 1.605707 2.5024 3.200987 2.5024zm5.119493-.1459733.4692-1.21992h3.00288l.479627 1.21992h1.866373l-3.00288-7.13184h-1.678693l-3.013307 7.13184zm2.888187-2.72136h-1.835094l.917547-2.3564267zm8.956506 2.72136v-1.5535734h-3.50336v-5.53656h-1.762106v7.0901334zm6.19344 0v-1.53272h-3.5972v-1.2303467h3.138427v-1.50144h-3.138427v-1.2929067h3.5972v-1.53272h-5.359306v7.0901334z" fill="#fff"/><g fill="#1d1d1b" transform="translate(150.803333)"><path d="m2.93968859 3.40527488h-.54510792v.84395532h-.33347779v-2.40232266h1.10432451c.50534711 0 .83754229.30910825.83754229.77854236 0 .41171681-.25780398.70030336-.65925993.7644337l.75930327.85806399h-.42582548zm-.54510792-1.24541127v.9337378h.77854237c.30910826 0 .49765146-.17828236.49765146-.4668689 0-.28473873-.18982581-.4668689-.49765146-.4668689z"/><path d="m3.08334055.3462575c1.49038919 0 2.70245268 1.21206349 2.70245268 2.70245267s-1.21206349 2.70245267-2.70245268 2.70245267c-1.49038918 0-2.70245267-1.21206349-2.70245267-2.70245267s1.21206349-2.70245267 2.70245267-2.70245267m.00000001-.33732561c-1.6789324 0-3.03977829 1.36084589-3.03977829 3.03977828s1.36084589 3.03977828 3.03977829 3.03977828c1.67893239 0 3.03977827-1.36084589 3.03977827-3.03977828s-1.36212849-3.03977828-3.03977827-3.03977828z"/></g></g></svg>