<svg height="596" viewBox="0 0 2047 596" width="2047" xmlns="http://www.w3.org/2000/svg"><g fill="none"><g fill="#fff"><path d="m348.103033 201.791478v119.633463h-69.928277v-108.393854c0-29.799972-14.669102-43.190783-37.556235-43.190783-10.785124 0-21.586918 4.319079-31.955306 16.842738.433405 4.752654.866811 9.938883.866811 15.125112v119.633463h-69.928277v-108.393854c0-29.799972-14.685771-43.190783-37.556235-43.190783-10.3517189 0-21.1535123 4.752654-31.0884951 17.276313v134.308324h-70.36168196v-209.450279h70.36168196v12.090084c13.818961-11.656509 28.4880631-17.7099 51.3751961-17.7099 26.337706 0 48.791434 9.938894 64.327347 27.632107 22.453728-19.427514 43.60724-27.632107 74.679065-27.632107 50.074981-.016664 86.764406 35.820012 86.764406 95.419956zm250.391571 31.534273h-151.525157c4.750789 21.595391 18.986486 38.438129 47.491218 38.438129 15.535913 0 24.604085-3.451927 31.088495-11.222933h70.795087c-12.518745 41.022905-51.375196 66.503799-100.583366 66.503799-68.64473 0-114.402327-46.64271-114.402327-110.561732 0-63.485447 44.457381-110.128156 109.218133-110.128156 62.593726 0 109.218133 39.738854 109.218133 103.207625 0 8.221257 0 15.558687-1.300216 23.763268zm-150.658346-40.17243h86.764405c-3.450573-24.613743-18.55308-34.986201-42.307024-34.986201-24.604085.016676-38.856451 13.824386-44.457381 34.986201zm328.954615-18.126787c-34.105662 1.300726-55.69258 10.355782-72.095303 26.348044v120.050363h-70.361682v-209.450279h70.361682v22.462542c18.55308-15.975587 41.006808-25.914469 72.095303-25.914469z"/><path d="m910.613 248.868-28.921 31.1v41.457h-70.362v-306.621h70.362v175.331l72.528-78.16h83.314l-79.43 85.514 86.331 123.953h-83.747z"/><path d="m1276.2738 111.974662v209.450279h-69.92828v-11.222933c-15.53591 10.372458-34.10566 16.842738-57.40953 16.842738-56.55939 0-104.03394-48.360335-104.03394-110.561732 0-62.618296 47.49122-110.128156 104.03394-110.128156 23.30387 0 41.87362 6.053379 57.40953 16.409162v-10.789358zm-69.94495 136.893101v-64.786174c-13.38555-14.691536-28.05465-18.560363-43.17383-18.560363-28.48806 0-49.64158 22.028967-49.64158 50.961788s21.15352 50.961788 49.64158 50.961788c15.11918 0 29.78828-3.885503 43.17383-18.577039zm334.13881-47.076285v119.633463h-69.92827v-108.393854c0-29.799972-15.10251-43.190783-38.42305-43.190783-12.51874 0-25.9043 6.486956-37.98964 19.86109v131.723547h-70.36168v-209.450279h70.36168v13.824386c16.83613-12.52366 34.97247-19.427526 57.40953-19.427526 52.67541-.016664 88.93143 35.820012 88.93143 95.419956zm265.06068-186.9877378v306.6212008h-69.92828v-10.355782c-15.53591 9.938883-34.10566 15.975587-57.40953 15.975587-56.55939 0-104.03394-47.509861-104.03394-110.128157 0-62.18472 47.49122-109.694581 104.03394-109.694581 23.30387 0 41.87362 6.05338 57.40953 16.409162v-108.8274298zm-69.92828 234.9311728v-64.786173c-13.38555-14.691536-28.05466-18.577039-43.17383-18.577039-28.48807 0-49.64158 22.028967-49.64158 50.528212 0 29.366397 21.15351 51.39547 49.64158 51.39547 15.11917.01657 29.78828-3.885609 43.17383-18.56047zm117.4195-209.8838543c0-22.8961173 18.13634-39.73885477 41.0068-39.73885477 22.45373 0 41.00681 16.84273747 41.00681 39.73885477 0 22.4625419-18.56975 39.3052793-41.00681 39.3052793-22.87046 0-41.0068-16.8427374-41.0068-39.3052793zm76.41268 72.1236033v209.450279h-69.92827v-209.450279z"/></g><path d="m902.102042 387.462131h1030.280478v150.917598c0 31.567626-25.58758 57.165251-57.14282 57.165251h-973.137658z" fill="#2a9bcd"/><g fill="#fff"><path d="m1032.808 538.544 18.632-56.44 18.632 56.44h22.168l29.92-93.024h-24.344l-17.272 57.392-19.584-57.392h-19.04v.272l-19.584 57.256-17.272-57.528h-24.344l29.92 93.024zm123.216-.544v-34.68h37.672v34.68h22.984v-92.48h-22.984v37.128h-37.672v-37.128h-22.984v92.48zm123.624 1.904c28.016 0 49.096-21.216 49.096-48.144s-21.08-48.144-49.096-48.144c-27.88 0-48.96 21.216-48.96 48.144s21.08 48.144 48.96 48.144zm0-21.352c-14.96 0-25.704-12.24-25.704-26.792s10.744-26.792 25.704-26.792 25.704 12.24 25.704 26.792-10.744 26.792-25.704 26.792zm131.784 19.448v-20.264h-45.696v-72.216h-22.984v92.48zm80.784 0v-19.992h-46.92v-16.048h40.936v-19.584h-40.936v-16.864h46.92v-19.992h-69.904v92.48zm50.184 1.904c23.12 0 38.352-11.56 38.352-30.056 0-15.912-11.016-22.712-27.88-26.384l-12.92-2.992c-6.936-1.496-10.608-3.672-10.608-8.704 0-5.984 5.304-9.248 13.192-9.248 9.384 0 13.736 4.76 14.96 11.696h23.12c-2.312-24.888-24.616-30.736-39.576-30.736-21.76 0-36.72 11.696-36.72 30.192 0 14.688 8.568 23.256 26.792 27.2l15.232 3.4c7.888 1.496 9.792 4.76 9.792 7.888 0 5.032-4.488 8.16-13.056 8.16-10.88 0-17.952-4.896-19.448-13.056h-22.984c2.176 22.848 20.944 32.64 41.752 32.64zm66.776-1.904 6.12-15.912h39.168l6.256 15.912h24.344l-39.168-93.024h-21.896l-39.304 93.024zm37.672-35.496h-23.936l11.968-30.736zm116.824 35.496v-20.264h-45.696v-72.216h-22.984v92.48zm80.784 0v-19.992h-46.92v-16.048h40.936v-19.584h-40.936v-16.864h46.92v-19.992h-69.904v92.48z"/><g transform="translate(1967)"><path d="m38.3437642 44.4166289h-7.1101033v11.0081128h-4.3497103v-31.3346434h14.4042328c6.591484 0 10.9244646 4.0318468 10.9244646 10.1549004 0 5.3702192-3.3626606 9.1343916-8.5990426 9.9708743l9.9039557 11.1921391h-5.5542454zm-7.1101033-16.2444949v12.1791888h10.1549005c4.0318468 0 6.491106-2.3254221 6.491106-6.0895944 0-3.7139834-2.4759889-6.0895944-6.491106-6.0895944z"/><path d="m40.2174855 4.51640212c19.4398589 0 35.2493827 15.80952378 35.2493827 35.24938268s-15.8095238 35.2493827-35.2493827 35.2493827-35.2493827-15.8095238-35.2493827-35.2493827 15.8095238-35.24938268 35.2493827-35.24938268m0-4.39989922c-21.8991182 0-39.64928192 17.7501638-39.64928192 39.6492819 0 21.8991182 17.75016372 39.649282 39.64928192 39.649282s39.6492819-17.7501638 39.6492819-39.649282c0-21.8991181-17.7668934-39.6492819-39.6492819-39.6492819z"/></g></g></g></svg>