<svg height="424" viewBox="0 0 873 424" width="873" xmlns="http://www.w3.org/2000/svg"><path d="m219.196693 421.952032c-3.574648-1.337514-4.573762-2.647622-3.724783-4.880586.393211-1.034264 1.148653-1.88086 1.678893-1.88086.530239 0 2.850185 1.219551 5.156429 2.709583 2.305648 1.490628 5.125449 3.049175 6.265762 3.463238l2.073296.752463-2.549916.055407c-1.403645.030385-3.46145.187669-4.574357.349124-1.112312.16086-3.058707-.094728-4.325324-.568369zm-8.112664-6.866302c-.673225-.37653-1.795069-.50343-2.493317-.281802-.879363.279418-1.558546-.137028-2.209132-1.352408-.517132-.965751-1.443562-1.929119-2.058401-2.140619-1.411986-.485556-4.371199-5.28035-6.018516-9.750447-.831701-2.257986-1.950566-3.81832-3.278548-4.573762-2.356884-1.340493-2.525488-1.948184-.701227-2.527277 2.086999-.662501 2.474848-4.341409.718505-6.807916-.838255-1.177847-1.279724-2.560044-1.027116-3.218375.297888-.77689-.524281-2.139427-2.516552-4.169231-2.514169-2.561831-2.978873-3.493623-3.09207-6.193078-.072685-1.747407-.498068-3.618139-.945495-4.156719-.563007-.679183-.677991-3.115902-.374146-7.93274.330059-5.220773.137624-8.443318-.770337-12.934267-1.349429-6.669102-2.038145-19.095769-1.687829-30.432765.075067-2.418845-.23831-5.739693-.697057-7.379861-1.114694-3.993477-6.245505-9.034326-12.587526-12.36709-4.535633-2.383098-5.173112-2.994363-6.946733-6.654803-1.073586-2.217473-3.125434-5.530576-4.560059-7.363774-1.43403-1.832603-2.993768-4.524313-3.465621-5.980982-1.496586-4.623211-4.135868-9.270253-5.935107-10.448696-.95741-.62735-2.049465-2.257986-2.42659-3.624693-.610074-2.210324-.449214-2.828142 1.461435-5.605048 2.072104-3.01164 2.096531-3.133774.69646-3.500176-3.440598-.899619-1.993462-5.499 4.181743-13.291732 4.104887-5.179069 5.306565-9.124289 4.169826-13.683156-.433128-1.736683-.820977-3.553796-.862085-4.037565-.041109-.483769-.34972-.879959-.685141-.879959-.336613 0-.271674-.6345.142986-1.410199.639862-1.195124.478407-1.536503-1.058692-2.236538-2.240113-1.021158-5.623517-.011915-5.636028 1.681276-.016086 2.0304-.909152 2.17994-3.852875.645224-1.576419-.822169-3.214204-1.494203-3.638991-1.494203-.425383 0-2.077466-1.124226-3.672951-2.498083-1.594889-1.373856-3.29523-2.81146-3.778999-3.193948-.483769-.383083-.879959-1.426284-.879959-2.318755 0-.891874-.621393-2.184705-1.38041-2.871633-.759612-.687524-1.743832-2.34914-2.187088-3.692016-.582668-1.765876-1.018775-2.229984-1.574633-1.674127-1.159377 1.159378-2.875804.938941-7.04146-.903194-2.177557-.963368-4.446266-2.608301-5.353035-3.880876-.865065-1.21538-2.517744-2.697668-3.672951-3.294634-1.906479-.986007-2.383099-.978262-5.159409.081621l-3.059302 1.168314-9.3858343-4.548143c-5.7730563-2.797758-10.2544732-5.466233-11.6420324-6.934221-2.151938-2.27586-2.2216436-2.52251-1.5055225-5.343503.6553521-2.583875.544538-3.384-.8817465-6.330702-.8984281-1.855242-2.8609098-4.705428-4.3610704-6.333084-1.5001606-1.627061-2.5570648-3.235057-2.3485437-3.571669.2085212-.337209-.8489788-2.608302-2.3485436-5.046807-1.7039155-2.770948-2.9061888-5.739097-3.2052676-7.910696-.3830831-2.784651-.8287226-3.636013-2.2413043-4.280045-1.4977774-.682162-1.9160112-.595179-2.7733309.576114-1.2076353 1.6497-.8638733 3.391149 1.8051971 9.160631 1.0849057 2.344373 2.2061536 5.820122 2.4921254 7.723622.2853761 1.9035 1.1283972 4.655384 1.8731155 6.116223 1.7646845 3.459068.6255634 3.397703-2.1573-.11558-1.6413592-2.0727-2.0846155-3.208843-1.7587268-4.508823.3485282-1.387559.0059578-2.055422-1.7003408-3.317273-2.5868535-1.912437-3.1343704-3.146286-2.1841099-4.92229.5540704-1.035457.2996747-2.171003-1.107545-4.948504-1.4292634-2.820398-1.7277465-4.187105-1.3744522-6.281253.5784972-3.424512-.9574098-6.523732-3.8212986-7.709323-1.6532746-.685141-2.2234309-1.451307-2.5600436-3.441791-.2383099-1.407815-.695269-3.586563-1.0146042-4.841264-.3324423-1.305343-.3086113-2.450422.0565986-2.675624.3503154-.216862.1209422-1.182017-.5099831-2.145385-.9294085-1.418539-.9931564-2.089977-.3354212-3.534135.446831-.980645.616031-2.101893.3753381-2.49153-.2412888-.38904.3586563-1.552588 1.3327478-2.585662.9734958-1.033073 2.2699015-3.092666 2.8811662-4.577336.6106691-1.484671 2.4927212-4.23715 4.1823381-6.116819 1.6896169-1.879073 3.8314267-5.171323 4.7602394-7.3155164 1.2886606-2.9758944 2.043507-3.9011324 3.1933521-3.910069.827531-.0065536 1.4608395.3836788 1.406624.8674479-.2240113 2.0155056 1.3702817 1.3947084 3.1605845-1.2314662 1.0557126-1.5478226 1.6246774-2.9204874 1.2654253-3.0491747-.3592521-.1292831-.6535648-.7113549-.6535648-1.2940225 0-.5832634-1.456669-2.4754437-3.2368436-4.206169-2.953255-2.8698465-3.1427113-3.2499507-2.1608747-4.3354522.7953592-.8787676.8888958-1.5239915.3586564-2.4724647-.9323874-1.6651902.5385802-5.3965268 2.1340647-5.4114212.6589268-.0059577.8465958-.2305648.4420648-.5278563-.9073648-.6666718-1.3184493-2.1805352-1.1909535-4.3866887.2037549-3.5234113-.5671774-4.9973578-3.1873943-6.0917958-1.411986-.5904127-3.5686902-1.8361775-4.7900282-2.7685648-1.2225296-.9317916-2.773331-1.6943831-3.4465564-1.6943831-.6732253 0-3.7319324-.6404578-6.7977887-1.4239014-4.9294394-1.2582761-5.7980789-1.3077254-7.505569-.4289578-3.5389014 1.8212831-7.2881113 2.5636184-8.8162732 1.7456198-1.1462705-.6136479-2.3973972-.2347353-6.760255 2.0470816-2.9443183 1.5400775-6.4617718 3.0396423-7.8165634 3.3315719-1.3541957.2919296-3.9464112 1.2785324-5.7599492 2.1924507-5.1451099 2.5928113-12.5148423 5.2058789-14.55358315 5.1606-1.31547042-.0297887-.42597887-.6064986 3.07419719-1.9946535 5.94940566-2.3592676 12.06205356-5.4310817 12.62803946-6.3461916.6958648-1.1266098-.8156155-1.5311408-2.6315366-.7036098-1.3369184.6088816-2.1608747.5522831-3.703931-.2561831l-1.98392961-1.0396268 2.15849151-1.1164817c2.4396972-1.2612549 3.2076507-2.688731 2.6470268-4.9222901-.5433465-2.1632578 2.4504211-3.7533803 8.8990859-4.7256845 3.4650254-.5224944 6.0995409-1.3923254 7.873162-2.5993648 3.1272211-2.1292986 2.5898324-3.7378902-.7822521-2.3413944-1.5960803.6613099-2.7584366.6684592-5.1224704.0315761-2.8728254-.7733155-2.9752986-.8835338-1.6902127-1.8230705 2.1501507-1.572845 6.5970127-2.5183394 9.5186915-2.0244422 1.8486888.3121859 3.3631479.0935366 4.917524-.7101634l2.2460704-1.1617606-1.4787127-1.572845c-.8132324-.8662564-1.4787127-1.7605141-1.4787127-1.9875043 0-.652969 4.2359578-1.958907 6.3545324-1.958907 1.0569043 0 3.9553479-.7649746 6.440324-1.7003408 2.484976-.9353662 8.2181155-2.2127071 12.7406408-2.8382705 7.3351775-1.0140084 8.888362-1.0265197 14.3879578-.1143887 3.3911493.5624113 8.0655972 1.2332535 10.3879267 1.4900324 2.3223296.2573746 6.4319831 1.0741817 9.1332254 1.8153253 6.2735067 1.7217888 10.3605207 1.7003409 17.3692137-.0893661 3.09505-.7899972 6.222867-1.2475522 6.950903-1.0163916.728633.2311606 1.966652.0768549 2.751883-.343762 1.081927-.5784972 1.920778-.5087915 3.46443.2895465 1.394113.7208873 3.115901.9270254 5.459679.652969 2.472465-.2895465 4.63751.0101282 7.79869 1.0783521 2.406334.814424 5.078979 1.4799043 5.939277 1.4799043 1.523992 0 1.528758.026214.197798 1.0050718-1.304747.9603887-1.308322 1.0277113-.083409 1.5025437.705397.2734605 3.154627.3014619 5.441806.0619605 4.131101-.4313408 4.166848-.4194253 5.31848 1.8081761l1.159973 2.2424957 1.505523-1.8880098c.865065-1.0843099 2.920487-2.313393 4.832924-2.8895071 2.890103-.8698309 3.767083-.8668521 6.670293.0226395 2.049464.6273507 4.501673.8561282 6.338446.5904127 2.339011-.3378043 3.424513-.1274958 4.950887.9591971 1.92614 1.3720691 1.97976 1.3726648 3.688441.0482578.95324-.7387606 2.915721-1.6729352 4.361071-2.0756789 3.457876-.9633676 4.630956-3.0170028 2.554086-4.4712887-1.468585-1.0289028-1.404837-1.1075451 2.456379-3.0009169 2.879378-1.4119859 4.17638-1.7337042 4.7376-1.1718888.561219.5612198.555261 1.1784423-.020853 2.2556029-.983028 1.8355817.240098 4.6101042 1.77243 4.0220746.551092-.2109042 1.464414-.2067338 2.0304.010724.889492.3413788.875193.6303295-.104261 2.1251281-2.705412 4.1287183 3.360169 2.9592127 7.466248-1.4399873 1.669361-1.7885155 4.255619-2.3312662 6.680421-1.4006662 1.565696.6005409 1.419136 1.0926507-1.173676 3.9356873-3.090283 3.3881705-4.671469 4.0810564-9.311957 4.0810564-2.243688 0-4.89131.4861521-6.12516 1.123631-1.708085.8835338-2.540978.956814-3.888025.3431662-2.51119-1.1438874-3.385787-.1918395-1.58476 1.7259591l1.53829 1.636593-3.06824.8710225c-1.687234.4790028-4.492736.9168972-6.234186.9734958-2.526084.0822169-3.167733.3562732-3.171308 1.3547915-.003575.8543409-1.232062 1.7533648-3.870152 2.8317169-8.548175 3.4936226-15.799348 9.7939395-13.173769 11.4454268.491514.3098028 1.272574 1.4250929 1.734896 2.4784225.532622 1.213593 1.559142 2.059593 2.80014 2.308031 1.077161.2156704 3.858833 1.3273859 6.180567 2.4712732 2.322329 1.1432916 5.171919 2.2859874 6.333084 2.5391916 3.196331.6964606 3.224332.7697408 1.735492 4.5463563-1.273171 3.2314817-1.298789 3.6926113-.312186 5.6008775.591604 1.1438873 1.463222 2.0691253 1.936863 2.0554225 2.305648-.0667267 4.46831-2.1948338 5.811186-5.7194366 1.28032-3.360169 1.863583-3.9863282 5.538321-5.9488098 5.423337-2.8972522 7.67894-5.7498212 7.077803-8.9538972-.391424-2.0864028-.188265-2.5761296 1.597868-3.8481085 1.126014-.8013169 2.616046-2.7197112 3.311911-4.2627676 1.554972-3.4495352 4.054842-4.6446591 8.269352-3.9559436 3.737294.6112647 8.157346 2.9842352 8.691161 4.666107.219245.6910986.036938 1.9303099-.404531 2.7560535-.669055 1.2493395-.542155 1.7771958.756633 3.1599887l1.559738 1.660424 2.546341-1.3202366c1.401262-.7262493 3.646141-2.1424057 4.989017-3.1474775l2.442676-1.8272408.573135 1.5508014c.315761.8531493.405127 1.9898873.199585 2.527276-.206138.5373888-.045875 1.5907183.355677 2.3425859.452789.8448085.487344 1.800431.092345 2.506424-.445639.7959549-.147752 2.0053775.984816 3.9994352 1.622294 2.8561437 1.622294 2.8585268.197797 3.8564493-1.874903 1.3130873-.672034 2.7054127 1.385772 1.6044211 2.043507-1.0938422 4.383114-.9514521 5.825484.3538902 2.132874 1.9303098.359253 4.2395324-5.301202 6.902645-6.157331 2.8966564-8.901469 3.4703874-16.937874 3.5412845-5.935107.053024-6.720338.2418845-12.490415 3.0080662-3.386383 1.6228902-6.156735 3.2296944-6.156735 3.5704775 0 1.4519028 1.066436 1.3255986 5.1606-.6112648 2.412291-1.1409084 5.521043-2.0530394 7.002139-2.0530394 2.529063 0 2.621409.0774507 1.831411 1.5537803-.456959.8543408-1.444157 2.0494647-2.19245 2.6559633-1.176655.9532395-1.245765 1.3553874-.509388 2.9723198 1.105162 2.4248028 3.990499 3.5913298 7.441226 3.0086618l2.728052-.459938-2.097127 1.447137c-1.154015.795359-3.053941 1.653274-4.222255 1.905287-1.168314.252608-3.570477 1.187379-5.336949 2.077466-1.793282.90379-3.5955 1.382197-4.079269 1.082523-1.114099-.68812.06196-1.720597 3.679504-3.232673 3.217779-1.344068 2.703625-2.772736-.764379-2.12215-1.350621.2538-5.730756 1.9035-9.73317 3.666397-6.247293 2.751884-7.336965 3.478729-7.700983 5.134386-.446831 2.035762-1.972014 2.998534-7.335178 4.629765-1.709873.520707-3.926751 1.778387-4.925269 2.795375-.998518 1.016391-2.910359 2.538596-4.247873 3.382808-1.338706.843617-2.619621 2.32233-2.847803 3.285697-.375338 1.587144-.462321 1.624678-.931791.402148-.880555-2.291349-2.207346-.051236-2.283605 3.855258-.078642 4.00301-2.107255 6.733445-6.557095 8.824018-4.562443 2.144193-11.054599 7.208874-12.370069 9.65155-1.161761 2.156704-1.210019 2.996746-.494493 8.539833.667267 5.170729.62735 6.468326-.250822 8.166879-.655947 1.268405-1.421518 1.874903-2.058401 1.63004-1.509693-.579093-3.356594-6.791831-2.838866-9.550864.359848-1.916607.121538-2.64226-1.306534-3.983945-1.151037-1.081331-2.213303-1.492415-3.115901-1.205848-.754251.239502-2.885337-.214478-4.738792-1.009242-2.840058-1.217167-3.746231-1.319045-5.773056-.649394-1.375048.452789-2.740564 1.528758-3.187395 2.510594-.66548 1.459648-1.106353 1.647913-2.943722 1.252318-1.188571-.255587-3.016407-.901407-4.061396-1.435816-2.573746-1.314875-4.015521-1.223126-6.90622.439085-1.348833.775699-4.100717 2.259774-6.115626 3.298209-2.315181 1.193337-3.905899 2.551703-4.322941 3.69142-.362827.991964-1.660424 4.859138-2.88355 8.593453l-2.222835 6.789448 1.135547 4.382518c2.086403 8.052491 4.989612 10.462995 11.037917 9.165398 4.560059-.977667 7.298239-2.959213 8.305098-6.009579.639266-1.936864 1.328578-2.577321 3.392937-3.150457 3.106965-.862681 4.403966-.894853 5.597303-.137028.984815.624372.63867 1.652679-3.770062 11.197585-3.025344 6.54935-2.80729 7.135593 2.375353 6.387895 4.721514-.68097 9.037902-.158476 9.541927 1.155803.196606.511771-.123325 3.967859-.710759 7.679535-1.050351 6.6411-1.042606 6.789448.46947 9.236295.846 1.368494 2.430761 2.949084 3.522816 3.513879 1.742641.901407 2.289562.899619 4.483204-.016682 3.485282-1.456073 5.377462-1.302363 7.798094.6345 1.935672 1.548418 2.209133 1.59191 3.72955.595775.903194-.591605 2.13466-2.057806 2.737584-3.258292 1.358366-2.706604 3.647333-4.608913 5.570493-4.629169.803104-.008936 2.204366-.807275 3.112923-1.775408 1.846305-1.964269 5.096256-2.604727 3.507921-.690503-1.333344 1.606208-2.095935 6.773958-1.236233 8.378975.71493 1.336918.77272 1.329173 2.075083-.278823.92643-1.144483 1.114099-1.878477.607095-2.385482-1.208827-1.208231-.844809-2.212707 1.404241-3.875514 2.334841-1.725959 4.140633-1.549014 6.155543.604116 1.477521 1.578803 9.365578 3.711676 11.625947 3.144498 3.442386-.863873 12.74362 4.791816 16.239029 9.873774 1.663999 2.420036 6.980096 4.855563 9.317916 4.268725 4.808497-1.20704 11.401339 3.610394 12.943204 9.458518.458747 1.741449 1.151632 3.363744 1.53829 3.604437 1.02652.639862-.511174 3.167138-3.872535 6.36466-2.148363 2.043507-2.66073 2.922871-2.056614 3.526986.604115.604712 1.597272.075068 3.982158-2.123341 3.4686-3.197522 4.62619-3.521624 6.364064-1.784345 1.056905 1.056905 1.024733 1.272575-.424191 2.81444-.863278.918684-2.067934 1.690212-2.678007 1.714639-.642245.026214-.382487.334826.617818.733995 1.375048.549304 2.091765.394402 3.518645-.757826 3.715251-3.002108 4.588657-3.14569 7.888652-1.302363 2.145385 1.198698 3.004492 2.110829 2.896657 3.075984-.300866 2.683369.331846 3.277357 2.19245 2.058402 1.478117-.96873 2.492722-1.014604 7.439438-.337209 5.262478.720888 5.951789 1.007455 8.476086 3.532348 1.874307 1.874307 3.982754 3.106965 6.630972 3.876706 3.556179 1.033669 3.942241 1.348834 4.587465 3.744444.935366 3.472174-.160859 7.325645-3.123646 10.986084-1.266022 1.563908-2.817419 3.858832-3.447748 5.101023-.63033 1.24219-1.971419 3.083133-2.978874 4.091184-1.706894 1.706299-1.802218 2.133469-1.376239 6.185928.83051 7.916058-3.04143 22.685907-6.776341 25.844704-1.216572 1.028308-2.256794 1.269596-4.185317.971113-1.58476-.245459-2.758436-.086983-3.068239.414064-.275248.446235-1.812347 1.388154-3.413789 2.09236-1.602634.704206-3.988115 2.198409-5.301203 3.320252-2.27288 1.941034-2.349139 2.156109-1.584165 4.473672.881747 2.672049.288355 5.836208-1.602038 8.534472-.610669.872214-1.110524 2.356289-1.110524 3.298208 0 .941324-.73459 2.69171-1.631826 3.889217-.897237 1.197507-2.627962 3.938666-3.846321 6.091796-2.996747 5.296437-4.799561 6.214525-9.145141 4.65717-3.771254-1.352408-5.782589-1.513267-5.782589-.464704 0 .395595.751272 1.061671 1.670552 1.479904.918685.41883 2.350927 2.123341 3.181437 3.787936 1.238615 2.478422 1.36909 3.339317.724462 4.754877-.99971 2.193642-4.821605 4.035182-8.373613 4.035182-3.146286 0-3.926751.769741-2.840058 2.800141.670843 1.253509.219245 3.270207-1.077756 4.816242-.104856.125113-1.20704-.297887-2.448634-.939537-2.963383-1.532332-4.012542-.556453-2.514169 2.340203.608882 1.177847 1.767068 2.351523 2.573747 2.60711 1.386367.440277 1.401262.537984.274056 1.783153-.656544.725058-.996731 1.82605-.757825 2.44923.257374.670247-.315761 2.116787-1.403645 3.543072-1.768855 2.318159-1.793282 2.478422-.660119 4.209148.648203.988986 1.659233 1.983334 2.246666 2.208536 2.119171.813233 2.470678 3.59133.854937 6.759064-1.61872 3.173096-1.867158 6.353936-.614244 7.864225 1.139121 1.372069-2.694093 4.045906-4.417669 3.081347zm-51.858012-304.758393c1.880264-3.929134 5.378653-6.854983 8.196071-6.854983 2.028017 0 2.051848.329463.194819 2.689922l-1.459648 1.855838 1.497777 1.212997c1.20704.977071 1.829624 1.061671 3.205268.434916.939537-.427766 1.902308-1.389942 2.139427-2.138235.323505-1.017584.848383-1.255298 2.087594-.944303 1.146866.287759 1.864775.041704 2.336628-.801913 1.429859-2.554682-2.208536-5.8225056-4.887139-4.388476-1.916607 1.025328-4.420648-1.0152-3.886238-3.167138.198393-.7977423-.209117-2.186493-.91511-3.117093-1.45369-1.9195859-3.666993-2.1221493-8.509449-.7774859-1.74145.4831732-3.727762.8573197-4.412903.8305099-.685737-.0262141-1.062862.2496295-.838255.6130521.224607.3634225.152518.6678634-.160859.6768-.312782.0083408-1.357175.6207972-2.319947 1.3607493l-1.751577 1.3452591 1.966652.7476972c1.537099.5838593 2.443868.5004503 4.150762-.3818915 2.007165-1.0378395 2.378332-1.0366479 4.5684.0071493 1.319045.6291375 3.120072.9520475 4.032203.7232705.906769-.227586 1.842731-.099494 2.079849.28478.24248.39202-.748293.897237-2.263944 1.15342-4.117398.695865-6.257421 2.410504-9.244039 7.409649-2.495104 4.175189-2.63809 4.679214-1.643742 5.782589.975879 1.083118 1.245169 1.100396 2.583874.163838.822169-.574923 2.285988-2.698859 3.25293-4.720918zm12.784132 4.343197c2.504637-1.277937 2.745925-1.599059 1.862987-2.481402-.882938-.882938-1.440583-.825147-4.312217.445044-3.372084 1.491224-4.442095 3.503751-1.862987 3.503751.789402 0 2.72984-.660119 4.312217-1.467393zm12.476713-5.316693c1.465605-1.027116 1.519225-1.228487.486152-1.806985-1.521609-.851362-6.04473.616031-6.04473 1.96129 0 1.385772 3.497197 1.288661 5.558578-.154901zm52.844615 303.866518c0-.309803.380104-.943111.844213-1.40722.464704-.464704.578497-.844808.2538-.844808-.325293 0-.971113.519515-1.435221 1.154015-.666076.911536-1.126014.989582-2.188281.373551-.759016-.440873-.943707-.789997-.423595-.802508.506408-.011916.725057-.337804.486152-.725058-.459342-.742931.748293-.945494 4.221659-.708376 3.100411.212096 3.412597.664884 1.49599 2.172194-1.784941 1.404241-3.254717 1.759919-3.254717.78821zm587.641728-17.659952c-2.013122-1.274958 2.179344-4.09178 12.573229-8.446297 2.902614-1.215976 7.325645-3.759338 9.828494-5.651518 4.25681-3.217779 4.609508-3.357191 5.453125-2.15313 1.280916 1.828432.526069 3.151648-2.601748 4.561846-1.494202.673822-3.373276 1.980355-4.175784 2.90321-.801913.922259-2.092956 1.677106-2.868059 1.677106-.775699 0-2.598174 1.066437-4.051268 2.369991-4.971144 4.461161-11.268482 6.569012-14.157989 4.738792zm-49.244945-9.14097c-.731015-.463513-.772124-.940133-.175753-2.053636.426574-.798338.776294-2.442676.776294-3.655673 0-1.982142.159668-2.148363 1.582973-1.647317.871023.306228 2.69171.598158 4.045906.649395 1.354792.050045 2.707796.137028 3.006875.193626 1.166526.21865-1.950567 3.767083-4.751303 5.408443-3.336338 1.95414-3.198118 1.920777-4.484992 1.105162zm81.309537-6.153161c-.244268-.244268.334825-1.058691 1.288065-1.808772 1.435817-1.129589 1.603825-1.606804.975879-2.779884-.908557-1.697362.440873-3.518645 3.565711-4.812668 2.420632-1.002689 3.030706-3.037855 2.381311-7.948825-.446831-3.378042-.39202-3.589542.697056-2.688731.854341.706589 1.06465 1.597272.760209 3.221949-.33423 1.780175-.033959 2.705413 1.450711 4.470097 1.604421 1.906479 2.081041 2.113809 3.329189 1.445945 1.243977-.66548 1.389346-.605307.997922.415255-.252012.65714-.458746 1.319045-.458746 1.471564 0 .151326-1.028903.802508-2.286583 1.44654-1.25768.644033-3.711676 2.347353-5.453125 3.785553-2.832313 2.337819-5.746843 4.227021-6.52135 4.227021-.154901 0-.481386-.200181-.726249-.445044zm-74.408083-9.087946c-1.481692-1.577016-1.755748-1.638381-3.179649-.705398-1.813538 1.189167-5.222561.494493-7.954784-1.620507-1.457264-1.128397-1.558546-1.492415-.807274-2.896656.641649-1.198699.663097-2.038741.083408-3.309528-.426574-.936558-.775698-2.321734-.775698-3.077176 0-1.705107-1.10695-1.786133-2.023251-.148944-.377125.674417-.887704 1.024137-1.133759.777486-.246651-.246055.568369-1.605613 1.811155-3.020577 3.057515-3.482303 1.864179-4.427798-2.174578-1.722981-1.740257 1.165336-3.27676 2.439102-3.41498 2.82993-.137028.390232-.974092-.815616-1.858817-2.68039-.958601-2.021464-2.614855-4.053651-4.1031-5.034296-2.235942-1.472755-2.993768-1.593697-7.288707-1.166527-6.299125.626755-12.376027 2.180535-16.354014 4.179955-1.80758.908556-5.335758 1.839156-8.056661 2.124533-2.662517.279418-6.896687 1.281511-9.409664 2.227601-3.842747 1.446541-4.935993 1.598463-6.882985.955622-2.611876-.862085-3.696782-2.638685-2.007165-3.286888.611861-.234735 1.721789-1.849285 2.467103-3.588351 1.193337-2.782863 1.259468-3.649715.551687-7.245811-.58505-2.975299-.601732-5.792717-.059577-10.373628.408701-3.458472.56539-6.969372.347932-7.801669-.218053-.832298.122134-2.869847.755443-4.527888 1.116481-2.923466 1.386963-3.11471 8.935428-6.311636 4.281832-1.813538 8.664351-3.297613 9.739128-3.297613 2.908572 0 6.51003-2.766778 8.495746-6.527307 1.2267-2.323521 2.078062-3.208247 2.813844-2.923466 2.055423.794167 2.461145.638074 2.302669-.885321-.101282-.98005.319335-1.693192 1.156994-1.958907.724462-.229969 2.063168-1.511481 2.974703-2.847803.933579-1.367303 2.852569-2.908572 4.392647-3.526986 2.568384-1.03069 2.823972-1.015796 4.221659.254396 2.577917 2.343777 4.405158 3.027726 5.277372 1.976184.424191-.511175.570156-1.13078.324101-1.376239-.805487-.806083 2.879975-5.430486 4.681597-5.874338.967538-.23831 2.953851-1.032478 4.414691-1.763493 2.27705-1.141505 3.077771-1.217168 5.628878-.532027 5.500788 1.476925 5.683691 1.718214 3.637205 4.810284-2.630941 3.976796-1.933289 5.531768 4.521333 10.07455 2.979469 2.097126 5.792717 3.689036 6.251464 3.535922.458746-.152518 1.90767-1.758727 3.220758-3.56869 1.789111-2.466507 2.483188-4.26098 2.770352-7.161211.406914-4.120973 2.377736-9.851134 3.387574-9.851134.333634 0 1.0998 1.694383 1.702128 3.765296.601733 2.071508 1.864179 4.488566 2.803716 5.3721 2.197217 2.063763 3.473366 7.834436 2.486763 11.244055-.653564 2.259773-.52726 2.622004 1.712852 4.925865 1.329769 1.367898 3.432854 4.703045 4.673853 7.412032 1.240998 2.709583 3.478132 6.542201 4.971739 8.518386l2.715541 3.592521-.771528 5.550237c-.560028 4.026245-1.427476 6.710209-3.158798 9.776662-2.651792 4.697087-6.617269 9.1791-8.707246 9.842197-.751868.238905-2.493317 2.001803-3.869556 3.91841-1.37624 1.916011-2.812652 3.483494-3.191565 3.483494s-1.9881 1.644338-3.577031 3.654482c-2.64941 3.351828-3.137349 3.659248-5.898169 3.71108-2.118575.039917-3.740869.613648-5.480531 1.941034l-2.471273 1.885031-1.620507-1.725959zm-343.114365-14.794276c-1.490628-1.490629-1.739662-2.252029-1.406028-4.305068.313377-1.930906.014894-3.067048-1.323811-5.036679-.950857-1.398879-1.728343-2.88772-1.728343-3.308932 0-.420617-1.244573-2.432548-2.76499-4.470693-2.350927-3.150457-2.833504-4.409328-3.221353-8.395061-.68395-7.03312-2.929424-14.645332-5.948214-20.163397-1.483479-2.712562-2.909168-6.234186-3.167138-7.826096-.5499-3.387574.825743-8.430211 3.966071-14.538689l2.089382-4.063183-1.173676-3.534731c-.657139-1.977376-.977666-4.316983-.728632-5.310735.291929-1.162356-.021448-2.547532-.908557-4.011946-.744718-1.229679-1.850476-3.977988-2.45757-6.10669-.810849-2.842441-1.941034-4.69113-4.259789-6.965798-4.459373-4.375369-5.039062-6.097753-3.655077-10.859184 2.817418-9.692062-.226395-15.344772-7.662258-14.229482-2.895465.43432-3.006279.380104-3.41498-1.66519-.313974-1.569866-1.16474-2.492721-3.300592-3.582393-2.775118-1.415561-3.963093-1.420922-7.370924-.033363-.774507.31576-3.940453 1.407815-7.036098 2.427781-4.655979 1.53412-6.053071 1.731917-8.079896 1.143888-1.920182-.556454-3.537114-.412276-7.465057.66548-4.059608 1.114099-5.531171 1.233253-7.724218.627351-4.576741-1.263043-12.439774-8.350974-13.558639-12.22053-.865661-2.994363-6.248485-9.973268-8.079896-10.475506-1.164144-.319931-1.307725-.567177-.594583-1.027115.716717-.462917.5922-.697056-.527856-.989582-1.778388-.464704-1.955333-1.918394-.235331-1.933288 1.052138-.009533 1.077756-.110219.175753-.692886-.664884-.429554-.738761-.686333-.199584-.692886.558836-.00715.345549-.874597-.613053-2.500466-1.349429-2.287775-1.377431-2.589237-.34674-3.728954 3.148669-3.478728 3.83798-10.968211 1.444753-15.686746-1.1421-2.25322-.40751-5.364951 2.0304-8.600008.917493-1.218359 2.710179-4.182338 3.982754-6.586288 2.225814-4.206169 7.187425-10.053102 8.530301-10.053102 1.485862 0 6.280656-5.154642 6.280656-6.75251 0-3.606819 2.156705-7.202915 5.672371-9.459709 1.889797-1.211806 4.1031-3.285102 4.919907-4.605934 1.670552-2.70303 1.906479-2.791204 3.852279-1.435221.762591.532026 2.660134 1.180825 4.215105 1.441774 2.371183.397382 3.505538.11141 7.036099-1.777195 6.076306-3.249355 9.830282-4.0608 16.782972-3.627077 4.584486.285972 6.648845.10307 8.871084-.786422 3.273186-1.309513 6.10252-.53441 5.33695 1.462031-.230565.599945-.089367 1.487053.312185 1.971418.506409.609478.502239 1.482883-.013107 2.836483-.646415 1.700937-.502833 2.207345 1.099205 3.879685 1.013412 1.058096 2.828142 2.120958 4.032798 2.361055 5.655093 1.131376 7.262493 1.863583 8.430212 3.840959.856128 1.447732 1.977971 2.191259 3.831426 2.539191 1.441775.270482 3.535923.96456 4.653 1.541865 1.896947.981241 2.143002.945495 3.725379-.540963 1.063458-.999114 1.546035-2.056614 1.296406-2.843037-.218649-.688715-.052428-1.896946.36938-2.685752 1.089076-2.033974 4.179955-1.834986 9.006325.581476 5.258307 2.632728 15.229192 4.51061 18.764519 3.534731 1.700341-.46947 3.335146-.475428 4.823391-.017873 4.861521 1.494203 7.351859.324101 8.015552-3.765892.220437-1.358366.596967-2.470081.836468-2.470081.455172 0 .692886-2.042316.759017-6.508838.021448-1.451307.364018-2.638686.762591-2.638686.473641 0 .44981-.509388-.067918-1.477521-.86566-1.617529-2.620217-1.58059-6.820428.142986-1.991675.817402-2.546341.782847-4.330686-.271078-2.313393-1.366707-4.688151-1.571653-5.372696-.464108-.508791.823956-4.106674.24665-6.058432-.972305-1.401858-.875788-2.711371-3.481111-2.711371-5.394739 0-.733994-.712546-1.836177-1.583569-2.449825-1.347642-.949069-1.426284-1.217764-.527856-1.805793.58088-.380105 1.774813-.521899 2.65358-.315165 1.121248.263928 2.151938-.177541 3.453706-1.478713 1.224317-1.224912 2.713754-1.900521 4.382518-1.989887 1.390538-.07328 3.404257-.711355 4.47546-1.417348 2.325308-1.531737 7.603871-1.106354 11.699822.943707 5.522831 2.764394 10.428439 2.602344 12.402837-.411084 1.027115-1.566888 1.032477-1.896947.05779-3.384-.593988-.906769-3.446557-2.99496-6.339042-4.641085l-5.260095-2.99198.985411-1.905883c.542155-1.048564.807871-2.082829.591009-2.29969-.216862-.216862-.133454-.811446.18469-1.3208329.318144-.5093873.639862-1.335131.716121-1.8349859.160859-1.0658408-.973496-.7715282-6.569607 1.7033197-3.248163 1.4364131-3.730741 1.8766901-3.010449 2.7453301.471853.568369 1.531736 1.047967 2.355097 1.064649 1.155207.023831.881746.356273-1.196315 1.452498-2.523106 1.330961-2.804312 1.348238-4.444479.274057-1.40305-.919281-1.586548-1.347047-.921664-2.147768.659523-.795359.56122-1.100991-.48079-1.493011-.720887-.270482-1.650296-.944899-2.064955-1.497778-2.015505-2.6869433-8.409955 4.380136-10.269963 11.349507-.87281 3.270803-.843617 3.441195.799529 4.681002l1.705107 1.286277-3.127816.645224c-1.721789.355082-4.040544.39619-5.154047.09175-2.055422-.56122-4.659553.28478-4.659553 1.513863 0 .361635-.479003.473045-1.06465.248438-.585646-.224607-1.515055-.034555-2.06555.422404-.853746.708972-.756634 1.289257.657735 3.950582 1.532928 2.882953 1.58059 3.27676.624372 5.193963-1.198103 2.400972-2.312202 2.22224-4.004798-.642245-1.179633-1.997036-1.171888-2.043507.389041-2.264539 1.970227-.280014 2.097127-1.53412.186478-1.839157-4.359879-.697056-6.684592-2.994363-6.684592-6.605353 0-2.817418-2.611876-5.923192-5.779014-6.872261-1.646125-.492705-3.435237-1.528162-3.9762-2.300881-.540963-.772124-2.124532-1.880861-3.519241-2.463529-1.394112-.582667-2.955042-1.658636-3.467408-2.390843-.736378-1.050947-1.220742-1.177847-2.298499-.600541-.751272.401552-1.366111 1.183804-1.366111 1.737279 0 1.826645 8.968791 10.091827 13.353097 12.305129 4.648234 2.346161 5.373887 3.18382 2.144789 2.474848-2.879379-.632712-3.664014 0-2.679199 2.162066.69229 1.518034.579093 1.97976-.812636 3.317274l-1.616933 1.553184.368189-2.095935c.583859-3.327401-3.803425-8.106706-7.441225-8.106706-1.333344 0-6.457006-4.970547-7.799286-7.566338-1.43403-2.772735-3.03011-3.308932-5.290479-1.775408-3.406044 2.308627-5.959534 3.089687-8.630988 2.63809-3.549029-.599349-5.781397.638075-5.216007 2.891294.295505 1.17606.131071 1.700937-.532026 1.700937-.527857 0-1.879669.791189-3.004492 1.758727-1.124227.966942-2.286583 1.758131-2.582087 1.758727-.870427.001191-3.326806 4.446862-3.329785 6.02626-.002979 1.510885-2.754266 4.486779-5.409633 5.850507-.845405.434916-2.813248.789997-4.372986.789997-2.145981 0-3.025344.35389-3.613969 1.45369-.770933 1.440584-.794168 1.437009-2.597578-.365805-1.692-1.692-2.666091-2.115-6.080476-2.643452-1.793282-.277631-2.097127-4.338431-.754846-10.123999.573135-2.472465.854936-5.244008.625563-6.158522-.667268-2.65656 1.420327-4.222851 4.912162-3.686654 8.062618 1.238616 12.77877 1.30713 13.884528.201372 1.51863-1.519225 2.203771-6.528499 1.276745-9.33698-.604711-1.8320074-1.435817-2.5808961-3.917218-3.5287736-3.64912-1.3935169-3.725975-2.7417549-.158476-2.7775014 1.358962-.0137028 3.320252-.5808803 4.357496-1.2606592 1.037243-.6791831 2.184705-1.0515422 2.549319-.8257436.994944.6148394 4.761431-1.5567592 6.011962-3.4656211.604712-.922855 1.795069-1.8546465 2.64524-2.0715085.850766-.216862 3.129604-1.8689451 5.064084-3.6717591 2.743542-2.5552775 4.18353-3.3565944 6.535648-3.6372043 2.913934-.3479324 5.844549-2.744138 4.468906-3.6544817-.854937-.5659859-1.569271-3.9732211-1.093247-5.2142197.225799-.5880296 1.221338-1.6008465 2.213899-2.2508366l1.80341-1.1814211-.462917 2.8954648c-.402148 2.5123816-.299675 2.8674633.776294 2.6881352.680971-.1143888 1.955928-.6017324 2.832313-1.0831183 1.334535-.7328029 1.662211-.6970564 2.013718.2198408.60352 1.5710578-1.07299 3.4191507-2.23058 2.4581662-.639266-.5302394-1.044989-.5111746-1.401858.0667268-.368189.5957746-.656544.5636028-1.080139-.1215381-.317548-.5135577-.738761-.7727197-.935962-.5755183-.197797.1977972.36521 1.2672127 1.249935 2.3771409 1.49182 1.8707324 1.776004 1.9600986 3.902324 1.2183591 1.820687-.6345 2.694689-.5916042 4.244894.2103085 1.750386.9049817 2.341395.8620859 5.705138-.4164465 2.946702-1.1200563 4.108462-1.2630423 5.412613-.6690549 1.200486.5469211 2.089382.5356014 3.204076-.0405127 3.164755-1.6354014 4.041735-2.8686549 3.648524-5.1320028-.582072-3.3554028.484365-4.4546071 3.294038-3.3941282 1.911841.7220789 2.470082.6934817 3.334551-.1709873.914514-.9145141.835872-1.2523183-.663098-2.8483986-1.442966-1.5353113-1.543652-1.9172028-.664288-2.5105944.570156-.3848704 2.707796-.5224943 4.750111-.3062281 3.737294.3955943 8.394465-1.0640536 7.58302-2.3771409-.710759-1.1498451-5.000337-1.4822873-8.634562-.6690549-3.223141.7214831-4.069141.6630972-6.539223-.4510014-3.836788-1.7301296-4.288386-3.7539761-1.656849-7.4215648 3.386979-4.7209183 4.006584-6.2258451 3.04143-7.3876057-1.428668-1.7217887-2.832313-1.160569-6.095967 2.4373141-1.724767 1.9011169-4.075098 3.8457254-5.22256 4.3211536-1.148058.4754281-2.567789 1.7932816-3.155223 2.9294239-.956218 1.8504761-.955027 2.2377296.014895 3.7176338.595178.9091521 1.724171 1.855838 2.508211 2.1048718 2.158491.6851409 1.731917 1.9708226-1.355983 4.0834395-.949665.6493943-2.216282 2.4879549-2.81444 4.084631-.75008 2.0018028-1.889797 3.3667225-3.668184 4.3932422-2.50702 1.4477324-2.621409 1.4536901-4.006585.1995845-.784039-.7095676-1.615741-2.1567042-1.848688-3.2171831-.232353-1.0586915-1.289257-2.9633831-2.348544-4.2317873l-1.924948-2.3062437-2.441484 1.4882451c-1.342281.8179986-3.074198 1.4822873-3.848705 1.475138-2.232367-.0208521-4.817434-2.4325479-4.990804-4.6571704-.085791-1.105162-.372955-2.5517028-.637479-3.2142042-.631521-1.575824 2.520127-4.5320578 5.794504-5.4358479 3.286293-.9073648 9.95182-5.5788338 11.087367-7.7706887.505812-.9752831 2.217473-2.9371691 3.804617-4.3598789 1.587143-1.4233056 2.885336-2.9014225 2.885336-3.2845056s1.504331-1.2326578 3.342296-1.8874141c1.83856-.6553521 4.925865-1.8439226 6.860941-2.6416648 2.375353-.9788578 5.345886-1.4965859 9.147524-1.594293 6.6411-.1697958 10.984893.7107592 14.568477 2.953255 1.798644 1.1248225 3.217779 1.5090971 4.575549 1.2374239 2.429569-.4861521 15.379923 3.5281775 15.919099 4.9342056.542751 1.4131775-3.171308 2.7471169-6.367044 2.2871789-1.463818-.2109042-4.490949-.774507-6.726295-1.2529141-3.01045-.6434366-4.271705-.6636929-4.857351-.0780465-.585647.5856465-.293121 1.0181789 1.127801 1.6651902 1.055713.4813859 2.377141 1.7599183 2.936574 2.8418451 1.423901 2.7542661 5.986939 5.0003366 8.340845 4.1048873 2.26156-.8597028 2.24607-1.1307803-.140603-2.4253986-2.206749-1.1975071-1.187975-1.4560733 1.583569-.4021479 2.213303.8412338 4.720918-.2055423 4.136463-1.7277465-.27346-.7119507.495685-1.2272958 2.6649-1.7825577 4.642872-1.189762 4.982464-1.3595578 4.597593-2.3008817-1.456669-3.5609451-1.477521-3.4590676.642245-3.2171831 1.130781.1292831 1.956524.6130521 1.862988 1.0908634-.092941.4724493.49628 1.2147845 1.309512 1.6502957 1.221338.6529691 2.184706.4206169 5.543088-1.3404929 4.924673-2.5808958 8.759078-3.4227254 10.188938-2.2359423.797146.6613099 2.11917.6660761 5.945235.0208521 2.706008-.4563633 5.227327-.6398619 5.60326-.4081056.375338.2323521.890683.0863873 1.143888-.3235056.55407-.8972366-.978858-2.9329986-1.818305-2.4140789-1.013412.6261592-4.341409-.4956845-3.617543-1.2195507.729228-.7292282 20.311149 3.8338099 21.483634 5.0056986.789401.7899972 3.291059-.2639282 3.291059-1.3869634 0-.3783169-1.396496-1.3661113-3.103986-2.1954296-5.292266-2.5713634-5.631858-6.6893577-.654756-7.9386972 2.888911-.7250577 4.137654.1114099 8.132919 5.4453803 5.18741 6.9246888 5.055148 6.5725859 3.360169 8.9527057-1.254701 1.7623014-1.330365 2.1745774-.459938 2.5082112 1.650296.6333085 5.180857-1.5817817 5.677733-3.5615408.582071-2.3199465-.505217-4.2967268-3.101007-5.6390071-2.041124-1.0557126-3.518646-2.9895971-3.518646-4.6059338 0-.5510915.765571-.6887155 2.287179-.4110845 2.280626.4170423 4.167444-.4098929 9.333406-4.0917803 1.180825-.8418295 3.178458-1.3964957 5.19158-1.4417746 4.084631-.0929408 5.406655-.7786775 4.231192-2.1948338-.460534-.5558577-.691099-1.1563986-.512366-1.3357268.899024-.8984281 12.483266-2.5177436 15.150549-2.1179788 2.567789.3848704 3.361956.176945 5.473977-1.4340296 1.358962-1.0366479 2.471274-2.1638535 2.471274-2.5046366 0-.8602986-6.148991-.7834437-6.684592.0834084-.737569 1.1927409-1.692596.7774859-1.423901-.6184141.226394-1.1784422-.368785-1.3702817-5.493638-1.7694507-13.995938-1.09026758-15.132676-1.34525913-13.454379-3.02474786 1.476329-1.4757338 5.096852-1.44773239 8.127558.06434366 1.241594.61960564 3.298208 1.12601409 4.570187 1.12601409 1.272574 0 2.509403.31695211 2.748308.70420563.238906.38725352 1.471564.70301409 2.738776.70301409 3.509113 0 10.294986 1.51624649 9.869007 2.20496199-.207329.3354211.449214.6100732 1.458457.6100732 1.009838 0 2.848994.5451338 4.08761 1.2118057 1.665786.896045 3.992286 1.2189549 8.936619 1.2386154 5.314906.0214479 7.081378.2943127 8.619668 1.3315564 1.064649.7179084 1.93031 1.5067141 1.924948 1.7521732-.005362.246055-1.629444 1.340493-3.608607 2.4319521-4.7799 2.6374944-3.769466 3.7867437 2.012527 2.2883705 3.744443-.9705169 4.605338-.9764747 7.705749-.0554071 2.543958.7554423 4.131697.8519578 5.85706.3574648 1.721789-.494493 3.490048-.3878493 6.489774.3890408 3.129604.8114451 4.751302.893662 6.735232.3425705 4.526696-1.2570845 10.095997-.9020028 13.326287.8501704 1.606209.8704268 4.567805 2.4814014 6.581523 3.5806056 3.569286 1.9463958 3.724783 1.9684395 6.200822.8579155 2.072105-.9288127 3.228503-1.0068591 6.285423-.4224042 3.037259.5808803 4.143613.5105789 5.854677-.3747423 1.674127-.8656605 1.942822-1.2910436 1.304151-2.0607845-1.235637-1.488245 3.148073-2.0417197 8.533876-1.0771605 2.467103.441469 5.593728.882938 6.947924.9800493 1.354792.0971112 4.001223.8692352 5.881487 1.715831 2.866868 1.2898521 5.030126 1.5823774 13.419229 1.8129422 7.959549.2186493 10.493974.536793 12.414156 1.5603338 1.948779 1.039031 4.170422 1.3029592 11.559815 1.3750479 6.798385.066131 9.844581.3884451 11.861278 1.2552972 3.255313 1.3994746 4.557676.8859169 2.785246-1.0974169-1.274362-1.4268803-1.266617-1.4286676 3.648524-.9407282 8.236585.8185944 18.116912 2.6208127 21.46159 3.915431 1.74145.6732253 5.06051 1.456669 7.375691 1.739662 2.315776.2835887 5.693818 1.2678084 7.507952 2.1864929 2.753074 1.3953043 3.647928 1.5490141 5.415591.9329831 2.417654-.8424253 3.985733-.2359267 7.678344 2.9711282l2.293732 1.9922704-1.728938.4343197c-1.734895.4349155-6.342021-.7053971-7.92976-1.9630774-.467088-.3699761-1.121248-.5040254-1.454882-.2978874-.333038.2055423-1.978568-.0988985-3.656865-.6773957-3.930921-1.3541958-5.675945-.8454043-3.885642 1.1325676 1.22253 1.3512169 1.19572 1.3792183-1.136142 1.2165718-4.363454-.3038451-3.163564.9842197 3.242205 3.4828986 3.482899 1.3583662 6.482029 2.6148549 6.664336 2.7912042.660118.6392662-1.516843 1.4316465-3.101603 1.128993-1.739662-.333038-6.025665 1.5341197-6.025665 2.6243873 0 .3616352-.677396 1.2892563-1.504927 2.0601887-1.382793 1.2886606-1.668765 1.3178536-3.518645.3610395-1.730725-.8948535-2.2842-.9043859-3.948198-.0655352-1.064054.5356014-2.882954 1.2022732-4.041736 1.4816915-1.158781.2788225-2.501657.8340845-2.983043 1.2338493-1.416157 1.1754634 1.080735 4.5964014 4.597593 6.2985296 1.915415.9270253 3.301783 2.1698113 3.714059 3.3274014.362231 1.0163915 1.128993 2.6851563 1.705107 3.709293.938345 1.668169.930004 1.9058831-.078047 2.2925408-.73876.2835887-.956814.8519577-.6345 1.6568493.269291.6744169.573731 2.017293.676205 2.984831.103069.967538.413467 2.2847958.689907 2.9270408.359848.8358719.062556 1.3071296-1.046776 1.6592324-1.234445.3920197-2.066743-.0798338-4.096547-2.3247127-1.401262-1.549014-3.738486-3.6818873-5.193963-4.7387915-1.455478-1.0575-4.063183-3.8075958-5.794505-6.1114563-3.054536-4.0631831-3.117092-4.2478733-2.10368-6.2085677.574923-1.1111197 1.056309-2.7489042 1.070011-3.6383957.014299-.8900873.459939-2.4045465.991965-3.3661268 1.016392-1.8355817.624968-3.3011873-1.547822-5.7939084-1.426881-1.636593-3.964881-.409893-3.324423 1.6068042.589817 1.8582211-1.219551 2.4605493-3.300591 1.0980127-.902003-.5898169-2.978874-1.2868733-4.614871-1.5478226-2.808481-.4486183-3.017598-.362231-3.745039 1.5478226-.424192 1.1123112-.601733 2.8704422-.394999 3.9070901.321719 1.6157409.097707 1.9463958-1.564504 2.3116056-1.13078.2484381-3.067048-.0458746-4.645851-.7053971-1.733704-.724462-3.366126-.9431113-4.54159-.6088817-1.009242.2871633-4.421839.5475169-7.584211.5790929-5.008082.0494493-5.972641.2680986-7.494845 1.6979578-.960985.9025986-2.115 3.1188803-2.565406 4.9258648-.450405 1.8063887-1.274958 3.989307-1.833198 4.8507971-.965155 1.4888409-.871619 1.6389761 1.886222 3.0461958 2.993172 1.5269704 6.25623 1.9291183 8.730482 1.075969 1.90767-.658331 7.728984 3.8802803 9.546693 7.4430127.744718 1.4596479 1.974993 2.9860225 2.734605 3.3923409 2.874017 1.5382901 3.457876 11.6307126 1.054522 18.2289166-1.663999 4.5684-3.526391 6.062007-6.261592 5.022381-1.044393-.397382-2.005378-.722675-2.134065-.722675-.129283 0-.912131 1.298789-1.739662 2.886528-1.086693 2.085211-1.298789 3.135562-.762591 3.781382 1.024732 1.235041.266311 2.841845-1.78375 3.776615-.946686.430745-1.720597 1.090268-1.720597 1.465606 0 .374146 2.201387 2.196025 4.892502 4.047693 3.422725 2.355693 5.251753 4.16506 6.090604 6.025665.659522 1.462031 1.070607 2.775118.913322 2.916912-.157284.141795-1.595484.918089-3.196331 1.725364l-2.909763 1.466797-1.751577-4.019096c-1.959503-4.498099-3.640184-6.307466-6.601779-7.104613-1.491224-.401552-2.01074-.970516-2.01074-2.202578 0-1.128993-.73042-2.088786-2.280625-2.997343-2.259178-1.323811-2.303861-1.322619-4.707811.163838-2.406334 1.487054-2.43374 1.48765-3.173096.10724-.409297-.766166-.744719-1.877286-.744719-2.469486 0-.592796-.591604-1.394113-1.314874-1.780771-1.074778-.574922-1.753365-.227586-3.729549 1.91065-1.328578 1.437604-3.030706 2.963383-3.782574 3.390553-1.165931.663693-1.228487.944303-.424191 1.912437.518324.624967 2.307435 1.898734 3.9762 2.831717 2.654176 1.483479 3.161776 1.566887 4.057225.672629.850171-.850766 1.543056-.881746 4.110845-.18469l3.0879.837659-1.721193 1.150441c-3.191565 2.132873-4.198424 3.25293-4.653596 5.178473-.374146 1.579995-.150731 2.055423 1.267809 2.701838.946686.431341 2.385482 2.152534 3.198118 3.824874.812041 1.671743 2.434931 3.605628 3.605628 4.297322 2.575534 1.521013 3.322636 3.13735 1.834986 3.969647-1.386367.776294-.724462 1.936267 1.105162 1.936267 2.191855 0 2.204366 1.306534.086388 8.85202-2.565406 9.137396-4.881182 12.185975-10.939614 14.402852-2.386674.87281-5.288692 1.639572-6.449857 1.703916-2.698859.148943-4.79122 1.292235-6.617269 3.613373l-1.44952 1.842135-.675608-1.777791c-.881746-2.319351-2.904401-2.902615-5.80642-1.674127-2.660134 1.124822-4.413498 2.919296-5.120683 5.239838-.633308 2.07687 1.608592 5.728969 5.31848 8.667329 3.046196 2.412888 6.464155 8.46715 7.266664 12.872307.698248 3.832023-.53858 6.346788-3.857045 7.842778-1.511481.682162-2.92585 1.799239-3.143307 2.48438-.521303 1.643742-3.646141 3.690228-4.218681 2.763203-.238309-.386062-.247842-1.287469-.020852-2.00359s.216267-1.815921-.025022-2.443868c-.346741-.903194-.731016-.984815-1.842135-.390232-1.156995.619605-1.60323.462321-2.538-.892471-2.296116-3.329784-8.95211-8.680436-10.797224-8.680436-.649991 0-.900812.781656-.789402 2.462932.089366 1.354196-.187073 3.995265-.613648 5.86838-.694673 3.052154-.623776 3.611586.686333 5.382824.804296 1.087289 1.661019 2.772736 1.905287 3.745636.247842.987794 2.283009 3.243993 4.6107 5.110555 3.878493 3.111135 4.287194 3.725378 5.919617 8.893128.965155 3.052749 1.753961 5.851103 1.753961 6.2181 0 1.193932-1.469777.710163-4.53742-1.493012-3.171309-2.277646-5.196942-5.880295-6.885964-12.249126-.733398-2.764395-1.537098-3.949986-3.818915-5.628879-2.798949-2.058997-2.883549-2.238326-2.657751-5.644965.128092-1.93448.445044-4.677427.704802-6.094775.365209-1.995249.063152-3.424512-1.338706-6.333084-.995539-2.065551-2.17279-5.238647-2.616046-7.050397-.990774-4.047693-2.389057-4.725685-4.862117-2.356289-1.022945.979453-2.056614 1.78077-2.298499 1.78077-1.120056 0-2.658346-2.38429-2.288966-3.547242.670246-2.112021-3.452514-9.474604-5.864806-10.473718-1.319641-.546921-2.526084-1.87252-3.333955-3.664014-1.403049-3.111135-2.977681-4.301493-4.549931-3.441195-.570752.312186-2.854356.940133-5.076 1.3959-4.070928.834681-5.531767 2.067338-4.974718 4.19902.205542.784635-.506408 1.543056-2.21509 2.35748-1.385176.660714-2.877592 1.988696-3.316082 2.952064-.43849.962772-1.404836 1.943417-2.146576 2.178748-.742335.235926-1.886818 1.312491-2.543958 2.393226-.657139 1.080736-2.614259 3.056324-4.349155 4.389072-2.374757 1.824858-3.115901 2.84542-2.997938 4.128719.689907 7.504377-.368784 13.782054-2.952063 17.510412-2.520127 3.636609-2.697668 3.73789-4.829349 2.766182-1.173676-.53441-1.896351-1.578803-2.19543-3.173096-.245459-1.307129-1.662211-4.989613-3.149265-8.18356-8.997388-19.324547-10.327753-23.011796-9.561587-26.501248.518324-2.358076-.724462-5.916043-1.925544-5.513299-.481386.160859-.883533.741144-.893662 1.288661-.059577 3.211225-3.668184 3.704526-6.486794.886512l-1.867158-1.867753 1.606209-.594583c1.808176-.668459 1.641955-2.472465-.196606-2.141214-.653565.117367-2.148959-.595775-3.323231-1.583569-1.174868-.988391-2.406929-1.796857-2.737584-1.796857-.331251 0-.804296-.636883-1.051543-1.414965-.648798-2.043507-4.381326-3.821298-6.252059-2.977681-1.683659.759017-16.957534.600541-19.514003-.202564-.920471-.28895-2.623791-1.612762-3.784956-2.941935-2.098318-2.400972-2.13049-2.410504-5.277372-1.562121-2.981852.8037-3.41498.728037-7.431693-1.29998-3.470983-1.751578-4.51061-2.697072-5.582408-5.073021-1.366707-3.031302-4.402775-5.226136-6.24908-4.517759-.580881.222819-1.260064 1.331556-1.508502 2.462932-.357465 1.625273.007149 2.680986 1.731917 5.027146 1.201677 1.633614 2.509999 4.180551 2.908572 5.65986.856128 3.178457 2.545745 4.123952 3.947007 2.208536.845404-1.156398 1.073586-1.196911 1.645529-.290142.365806.577901.563007 1.368494.438491 1.755152-.391424 1.216572 3.66878 3.218375 5.563343 2.742947.95741-.240693 3.0033-1.870733 4.545761-3.624098 2.431356-2.761415 3.280335-2.947893 2.864484-.629138-.280014 1.56093.948474 3.390554 2.981257 4.4415 3.139732 1.623486 7.514505 5.239243 7.514505 6.211547 0 .448618-.822169 1.582973-1.827241 2.521318-1.005667.937749-2.452208 2.922871-3.215395 4.411116-1.853455 3.616352-7.226747 8.904447-9.046838 8.904447-2.103085 0-5.230902 1.776005-6.476071 3.676526-.590412.900811-2.14181 2.171003-3.447152 2.82278-6.688166 3.338721-14.740656 6.723913-17.006387 7.149296-2.423016.45398-2.619621.343762-3.90292-2.187089-.743527-1.465605-1.586548-4.406945-1.874307-6.535648-.373551-2.768565-1.098608-4.527887-2.546341-6.181162-1.112907-1.271383-2.023846-2.616642-2.023846-2.990193 0-.372955-1.269596-1.986312-2.821589-3.585967-1.933289-1.991675-3.181437-4.15255-3.96488-6.861537-.628543-2.174577-1.908267-4.903225-2.843037-6.064986-6.458197-8.019127-8.370038-10.846673-9.33281-13.799332-1.275553-3.91424-2.354501-4.545761-2.852569-1.671148l-.353294 2.040528-2.380716-3.005683c-3.667588-4.630956-4.12991-2.526085-.686332 3.127817 1.629444 2.675028 4.227021 7.397734 5.771865 10.493975 1.545439 3.095645 3.548434 6.608928 4.451628 7.806435.930004 1.233253 1.642551 3.160584 1.642551 4.444479 0 2.651197.790593 4.305663 3.898153 8.154963 1.249935 1.547823 2.48438 3.808192 2.744138 5.02238.332442 1.557355 1.690809 3.185607 4.6107 5.527597 4.43733 3.559754 7.312538 7.274409 8.026276 10.37065.268099 1.162952 1.283895 2.356884 2.571364 3.02296 1.962481 1.014605 2.65358.987199 8.854402-.356869 3.699761-.801317 7.618171-1.918394 8.708438-2.481997l1.982738-1.024732.470662 2.78465c.427171 2.531447-.032767 3.750402-5.04204 13.357268-5.385803 10.330732-5.637816 10.672111-10.993234 14.900324-3.01462 2.379524-6.169247 5.292862-7.01048 6.474283-.841234 1.180825-3.531753 4.371199-5.979791 7.089123-7.143338 7.931547-8.11445 14.907473-3.37685 24.25756 1.203464 2.375354 1.673531 4.172806 1.388155 5.309544-.237119.944898-.085196 3.332763.337804 5.305373.666076 3.105773.591008 3.936283-.561816 6.195461-1.663998 3.260079-2.987214 4.431967-7.637831 6.762042-2.032187 1.018775-3.694398 2.151938-3.694398 2.520127 0 .366997-1.425093 2.272284-3.166543 4.232979-1.741449 1.96129-3.166542 3.88445-3.166542 4.273491 0 .389637.652969 1.9881 1.450712 3.552009 2.392035 4.688746.784635 8.086449-4.9491 10.461802-2.417058 1.000902-3.211226 3.045005-2.613068 6.729871.313377 1.93031.114389 2.57315-.980049 3.158201-.754847.404531-2.120362 1.908862-3.033685 3.343487-2.884741 4.529675-11.176137 12.545227-14.942624 14.445153-3.143307 1.585952-3.947007 1.725363-6.256825 1.087884-2.035762-.562411-3.678909-.473045-7.092697.384275-5.528789 1.38875-4.942547 1.446541-7.083761-.694673zm92.681087-224.431885c1.817113-.938941 2.076275-1.456073 2.076275-4.135868 0-1.920777-.411084-3.403064-1.102183-3.9762-.605903-.503429-1.58774-1.854646-2.181727-3.0033-.983028-1.900521-.978858-2.05006.046471-1.656253 1.3536.518324 3.237439-.106048 3.237439-1.074182 0-.382487-.654756-1.614549-1.454882-2.73818-1.205252-1.692596-1.687829-1.918394-2.814439-1.315471-.91094.487344-1.360154.49211-1.360154.013703 0-.393211-1.255893-1.354791-2.790608-2.138235-3.397107-1.733108-4.605934-3.65329-3.546647-5.633049.801913-1.498373 3.666993-2.548128 4.890119-1.79209 1.6497 1.01937 2.135852-.483174.774507-2.394419-3.300592-4.6351264-7.895206-4.329494-13.594386.902599-3.677121 3.376255-3.996456 4.273491-1.916607 5.386994.773911.414064 1.40722 1.223721 1.40722 1.79924 0 .575518 1.251126 2.404546 2.781076 4.063779 3.523411 3.82249 4.169231 5.569301 3.733719 10.092422l-.351507 3.641971 4.834712 2.480805c2.658942 1.364324 4.928843 2.496296 5.045019 2.514765.116176.019065 1.145079-.448618 2.286583-1.039031zm-19.385315 196.552014c-1.986909-1.12661-2.26871-1.721789-2.788225-5.874338-.414064-3.319656-.241289-4.041139 1.744428-7.267855 2.017888-3.279144 2.162662-3.91126 1.717618-7.473397-.642245-5.143323.451597-7.846352 3.440599-8.501704 2.816822-.618414 8.911001-5.998259 10.371245-9.155865l1.11529-2.412887.775698 1.702128c1.951758 4.282428 1.752769 6.163884-1.641955 15.557463-1.816516 5.026551-3.765295 11.038513-4.330685 13.360842-1.809368 7.431098-2.837675 9.222592-5.801058 10.110892-3.155818.945494-2.850186.948473-4.602955-.045279zm346.619903-12.233637c-2.245475-2.456378-3.588947-4.563633-3.588947-5.628878 0-2.361055.378913-2.154917 2.409313 1.309512.971113 1.65685 2.726265 3.932113 3.899941 5.057531 1.173676 1.124823 2.13466 2.302074 2.13466 2.616643 0 1.3536-1.498373.318739-4.855563-3.354212zm-313.899959-.998518c0-.387253.316952-.70361.703609-.70361.387254 0 .70361.316357.70361.703014 0 .387254-.316356.704206-.703014.704206-.387253 0-.704205-.316952-.704205-.70361zm4.925864-2.421824c0-.170391.316357-.505812.703014-.744718.387254-.239501.704206-.099494.704206.309803 0 .410488-.316952.74591-.70361.74591-.387253 0-.70361-.140007-.70361-.310399zm318.930085-12.852646c-1.444754-3.111731-.938345-4.306855.555858-1.311896 1.554971 3.117093 1.582377 3.21897.851957 3.211225-.290738-.002979-.92345-.857915-1.407815-1.899329zm2.694689-.499259c-.030385-.74174.135836-1.157591.36938-.923451.233544.233544.258566.840638.055407 1.348834-.224607.561219-.391424.394403-.425383-.425383zm-358.566972-10.261623c-.238906-.387253-.099495-.70361.310398-.70361s.745314.316952.745314.70361c0 .387254-.139411.70361-.309802.70361-.170988 0-.506409-.316356-.74591-.703014zm308.903197-6.610715c-4.452224-1.404241-6.471304-2.708392-8.224073-5.313119-2.001803-2.975894-5.665817-5.228518-7.537145-4.634531-.756634.240097-2.029805 1.546035-2.82993 2.901423-1.360749 2.306839-1.622294 2.434335-4.096546 1.994058-1.453691-.257971-3.484091-1.25351-4.512398-2.212112-1.306533-1.217763-2.308031-1.602634-3.327997-1.279128-.802508.254992-1.96546.179924-2.583874-.166221-.966943-.540963-.872215-.794763.674416-1.808772 1.792686-1.173676 1.795069-1.189762.592796-3.71108-.96575-2.025634-2.297903-3.080155-6.654803-5.270818-2.995555-1.506119-6.382533-2.738776-7.526421-2.738776-2.616642 0-3.696781-2.411696-1.725959-3.852875 1.172485-.857916 1.000902-1.070607-2.057806-2.557065-3.248163-1.577611-3.294633-1.644338-1.743236-2.505828.87698-.487344 2.28837-.896641 3.137349-.910568 1.648509-.026586 3.734316 2.352343 3.734316 4.258821 0 .635692.683949 2.025634 1.520417 3.089092 1.498373 1.905287 1.537098 1.912437 2.639281.537389.614244-.767954 2.577321-2.232368 4.361071-3.254717l3.243993-1.858817 4.496311 2.028613c2.47306 1.11529 5.98396 2.564214 7.801073 3.21897 1.817709.655352 5.453721 2.602344 8.0793 4.327111 5.015231 3.293443 7.193979 6.070944 5.944044 7.576466-1.018775 1.227296 2.982448 6.81745 7.124273 9.953608 4.551718 3.447152 4.474863 3.766487-.527856 2.188876zm30.623413-.057195c-.554667-.668459-.608286-1.072394-.141795-1.072394.850766 0 1.842135 1.335131 1.354196 1.82307-.177541.176945-.722675-.160859-1.212401-.750676zm-118.2285-2.863889c-1.019371-.564198-1.314875-.978857-.703014-.987198 1.257084-.016682 3.266632 1.154015 2.793587 1.627656-.182903.182903-1.123631-.105452-2.091169-.640458zm11.897024-.930004c1.995249-2.802524 5.117704-4.001818 8.005423-3.074197 2.103681.675609 2.136448.731611.465896.798338-.98839.039917-3.294634 1.021754-5.125449 2.182918-4.177572 2.64941-5.186218 2.677412-3.34587.092941zm102.095518.962772c-.950856-1.145675-.723271-1.289256.997922-.628542.612457.234735 1.112907.709567 1.112907 1.055712 0 .9729-1.139716.742336-2.110829-.42717zm3.295825-.620797c-.264524-.689907-.461129-1.781366-.436703-2.427782.029789-.77689.274057-.599945.723867.525473.37355.934175.570156 2.02623.436107 2.427186-.133454.400361-.458747.164434-.723271-.524877zm-125.559507-2.293137c-.486748-.204946-.705397-.662501-.486748-1.016391.537985-.869831 5.047403-.821574 5.592537.059577.238906.387254.020256.708972-.486748.713738-.506408.005362-1.554376.145965-2.328287.312782-.773912.166817-1.805197.135241-2.290754-.069706zm10.446313-.528452c-1.278533-1.540673.194818-2.009548 3.509708-1.117077 3.339317.899619 3.327997 1.040222-.133453 1.66519-1.797452.324101-2.785247.163838-3.376255-.548113zm105.648122-.427766c-.487343-.779869-.573731-1.40722-.194222-1.40722.376529 0 1.023541.633309 1.4382 1.40722.414063.773911.501046 1.40722.193627 1.40722-.30742 0-.954431-.633309-1.437605-1.40722zm4.40635-.708376c-1.881457-2.078658-.874002-2.405142 1.06167-.344358.907961.965751 1.327386 1.756344.932983 1.756344s-1.292235-.635096-1.994653-1.411986zm-131.931317-.121538c-2.515361-.349124-6.062007-1.123035-7.881503-1.720002-1.819496-.596966-3.963093-.87698-4.763814-.62318-1.610975.511175-8.464171-1.503139-8.464171-2.487955 0-2.249645 6.308062-2.420036 9.660486-.262141 1.251127.806084 2.23773.860299 4.883565.266907 2.931211-.656543 3.54188-.575518 5.264265.697057 1.071203.79238 2.266922 1.440583 2.656559 1.440583 1.391134 0 5.61458 2.353906 5.257711 2.931211-.199584.32291-.739952.543347-1.201081.489131-.46113-.05362-2.896061-.383083-5.412017-.731611zm126.306012-3.392341c-.700631-.773911-.956814-1.40722-.570156-1.40722.387254 0 1.276745.633309 1.977376 1.40722.700631.774507.956814 1.40722.570157 1.40722-.387254 0-1.276746-.633309-1.977972-1.40722zm-4.437329-.891279c-.399765-.481386-.9306-1.823666-1.179634-2.982448-.401552-1.866562-.356273-1.946396.393211-.700035.465896.774507 1.298193 1.93031 1.849881 2.56898.583859.677396.72327 1.334536.333038 1.575824-.368785.227586-.996731.019661-1.396496-.462321zm-14.902111-2.237134-1.748599-.967538 2.710775-.508791c1.489436-.279419 3.780786-1.448924 5.089702-2.598173 1.42986-1.254702 2.376546-1.709874 2.370026-1.13793-.01612 1.431051-.88178 2.53383-3.51153 4.474268-2.747712 2.026825-2.617834 2.00776-4.910374.73876zm-131.995065-2.739967c-2.585066-1.472755-7.247599-7.170744-8.765633-10.712028-.818594-1.91065-2.695284-5.056936-4.170422-6.992012-1.474542-1.935076-3.167138-4.46831-3.761721-5.628879-.593988-1.161164-2.399185-3.378042-4.010755-4.925864-3.398299-3.263654-5.488872-6.693529-4.064375-6.669231 1.846902.031705 6.599396 2.675157 8.638137 4.802669 5.624112 5.870763 6.775745 6.915752 9.431112 8.551749 2.561831 1.578803 3.774829 3.221353 3.896367 5.277372.023235.387253.751867 1.495394 1.619315 2.462336.867448.967538 2.504637 2.78763 3.6378 4.044119 1.133164 1.256488 2.265135 3.217183 2.515361 4.356304.81919 3.729549-2.184706 7.01763-4.965186 5.433465zm-141.737172-.464704c0-.386658.316952-.703015.704206-.703015.387253 0 .703014.316357.703014.703015 0 .387253-.315761.704205-.703014.704205-.387254 0-.704206-.316952-.704206-.70361zm186.112255-.005958c-.241289-.390233-.243076-1.326195-.006554-2.079254.238906-.753655-.051832-2.110234-.647607-3.019386-.979453-1.495394-.970517-1.808771.099495-3.336338.649394-.927025 1.41556-3.416767 1.702724-5.532363.354486-2.610685 1.054521-4.378944 2.17696-5.501979 1.535311-1.535311 1.921373-1.603825 5.373888-.949069 2.963978.562411 4.129909.492706 5.743267-.341379 2.702434-1.397687 2.899635-1.334535 2.001803.6345-1.140313 2.503445-3.419151 3.303571-5.82191 2.044103-4.291365-2.248454-9.985183 1.093246-6.980691 4.097142 1.10397 1.103971 1.714639 1.204061 3.759933.617819 3.505538-1.005668 4.88714-.820978 2.710775.361635-2.464124 1.339301-2.931211 2.824567-1.662211 5.28035.577901 1.117078 1.050946 2.850186 1.050946 3.850492 0 1.600846-.168604 1.728342-1.408411 1.064649-.774507-.414659-1.89218-1.911245-2.483785-3.326805-1.066436-2.55349-1.085501-2.561831-2.451016-1.196912-1.197507 1.197507-1.278533 1.729534-.622585 4.1031.5922 2.144789.552283 2.853761-.187073 3.322636-1.242786.788209-1.820092.764974-2.350331-.092941zm96.541707-3.753381c-.663097-1.012221-2.182323-2.344969-3.375659-2.962191-1.193337-.617223-2.011335-1.280916-1.817709-1.473947 1.093843-1.093842 7.199937 3.875515 6.679826 5.436444-.160264.479599-.798338.050045-1.486458-.99971zm-110.49892-2.341394c-1.06167-.556453-2.492125-.832893-3.178458-.615435-1.750385.555858-8.704267-.859703-9.392983-1.911245-.548112-.837064-2.160278-5.992897-3.022364-9.66704-.237119-1.010433 0-2.321138.55407-3.080155.805487-1.0998 1.221338-1.183208 2.496892-.50045 1.34645.719696 1.631826.596966 2.369991-1.023541.461725-1.012817 1.998228-2.433144 3.413789-3.155223 1.500756-.76557 2.941935-2.198408 3.45311-3.431662.588625-1.422114 1.664594-2.37714 3.274973-2.908571 1.318449-.434916 3.223141-1.874307 4.232383-3.196927 1.009242-1.323216 2.210324-2.405738 2.66907-2.405738.458747 0 1.846902 1.044989 3.084922 2.322925l2.252028 2.32233-1.805197 2.427186c-2.050061 2.756649-1.942226 5.127832.380104 8.390294l1.406624 1.974993-1.752769 1.148653c-.963368.631522-1.750982 1.537099-1.749195 2.011336.006554 1.612166-4.502864 10.901484-5.633049 11.607477-.786422.491514-1.702724.398573-3.053941-.309803zm40.876099-.013107c-1.456073-.3807-1.658041-1.626465-.263928-1.626465.532026 0 2.021463.2115 3.309528.468875 1.982738.396786 2.131086.551091.967538 1.006263-1.528162.597562-2.207345.623181-4.013138.151327zm-2.465316-10.881228c-.562411-.562411-.595774-1.214785-.107835-2.125724.386658-.722675.515345-1.617528.285972-1.9881-.6345-1.027116.955027-3.518645 2.244879-3.518645 1.03486 0 1.03069.120942-.045279 1.308917-.929408 1.027711-1.033073 1.70749-.48079 3.160584 1.117077 2.937169-.097707 4.962803-1.897542 3.163564zm-353.407563-2.313393c0-.170392.316952-.506408.704206-.744718.387253-.239502.703609-.10009.703609.309802 0 .409893-.316356.744719-.703609.744719-.387254 0-.70361-.139411-.70361-.309803zm4.222255-8.44451c0-.170391.316952-.506408.70361-.744718.387253-.239502.70361-.10009.70361.309803s-.316357.744718-.703014.744718c-.387254 0-.704206-.138816-.704206-.309803zm338.464344-10.579766c-1.342281-3.130796-1.521013-3.270803-3.586564-2.818014-2.058997.452789-2.13049.397382-1.359558-1.044393.639267-1.193337 1.231467-1.429859 2.744734-1.098013 1.459648.320527 2.392035-.003574 3.821299-1.328577 1.040222-.963964 1.898138-2.321734 1.906479-3.017599.022043-1.775408 2.635111 4.180551 3.231481 7.364966.452789 2.417654.396191 2.54932-.703014 1.638381-1.632422-1.352409-3.204076.05064-1.864774 1.663998.53441.644033.602924 1.085502.168008 1.085502-.402744 0-1.230275.190647-1.83856.424787-.816808.313377-1.477522-.43849-2.520127-2.871038zm-128.2959 1.243382c-.786423-1.277341-1.234446-7.011672-.666077-8.533281.602924-1.613357.648203-1.593697 2.440889 1.055713 2.148364 3.175479 2.835888 5.211241 2.126916 6.29853-.678588 1.040818-3.468005 1.883839-3.902324 1.179633zm157.138542-3.640184c0-.386657.316356-.899023.703014-1.137929.387253-.239501.704206-.118559.704206.268694 0 .387254-.316953.89962-.70361 1.138526-.387254.239501-.70361.118559-.70361-.268695zm-49.255669-4.147783c0-.300866 1.410794-2.121553 3.134966-4.045905 2.526084-2.819802 3.140924-3.218375 3.165946-2.053635.017874.795359-1.040222 2.616046-2.349735 4.046501-2.221643 2.424803-3.951177 3.323827-3.951177 2.053039zm15.239915-1.877286c-.256183-.668459-.203755-1.682467.116176-2.254411.495685-.885917.701823-.894258 1.396496-.05779.621989.749485.594583 1.283299-.11558 2.254411-.872214 1.192741-.959197 1.196316-1.396496.05779zm-538.849572-2.741754c.430746-.519516.574923-1.152824.320527-1.40722-.254991-.254992.193627-.463513.99554-.463513 1.112311 0 1.371473.33423 1.090267 1.407816-.213287.816807-.959197 1.407219-1.778983 1.407219-1.100991 0-1.239211-.207925-.627351-.944302zm543.571682-.186478c-.262141-.732803-.605307-1.569866-.761996-1.860008-.156688-.290143.013703-.527857.378317-.527857.701823 0 1.690809 2.889507 1.167719 3.412597-.1692.1692-.521899-.291929-.78404-1.024732zm-7.130827-1.836177c-.987794-1.190358-.025022-2.885933 1.453095-2.555874.926429.20733.960388.499855.216862 1.876095-.717313 1.328577-1.027116 1.454286-1.669957.679779zm8.319398-2.41825c-.807275-1.026519-1.350622-1.983929-1.20704-2.126915.571944-.571944 2.549916.687524 3.602649 2.293732 1.618124 2.469486-.434319 2.327096-2.395014-.166817zm-11.567561-2.723881c-.626755-.62616-1.139121-1.503736-1.139121-1.948779 0-.44564.694673-.114985 1.543652.73459.849575.848979 1.361941 1.725959 1.139717 1.948183-.22282.223415-.917493-.107239-1.544248-.733994zm-552.333739-.100091c-.257971-.258566-.469471-.79655-.469471-1.196315 0-.440873.327676-.399169.832893.105452.458151.458151.669055.996135.468875 1.196316-.199585.199584-.574327.152518-.832297-.105453zm-3.98752-.938345c0-.387253.139411-.703609.309803-.703609.170987 0 .506408.316356.74591.703014.238905.387253.099494.704205-.310399.704205s-.744718-.316952-.744718-.70361zm33.071451-1.407219c0-.387254.140007-.70361.310398-.70361.170987 0 .506409.316356.745314.703014.238906.387253.099495.704206-.309803.704206-.410488 0-.745909-.316953-.745909-.70361zm530.327611-.10724c-.705397-.397977-2.042911-.532622-2.971724-.299674-1.362537.341974-2.302073-.206138-4.852585-2.82993-3.603245-3.707506-4.30328-5.270222-3.246971-7.245215.408701-.763188.742931-2.339607.742931-3.503155 0-3.819512 2.558256-3.665206 4.433754.267502 1.039031 2.178748 1.045585 2.646431.06911 4.98306-1.050946 2.515956-1.03069 2.628557.844809 4.585677 1.354196 1.413773 2.370587 1.893372 3.440598 1.624678.905578-.226395 1.880861.054811 2.412888.695864 1.267212 1.526971.714929 2.616643-.87281 1.721193zm-534.549271-4.425414c0-.170391.316357-.505812.70361-.744718.387254-.239502.70361-.099494.70361.309803 0 .409893-.316356.745314-.703014.745314-.387253 0-.704206-.139411-.704206-.309803zm110.473302-2.504041c0-.387253.316952-.70361.70361-.70361.387253 0 .70361.316357.70361.703015 0 .387253-.316357.704205-.703015.704205-.387253 0-.704205-.316356-.704205-.70361zm-112.584131-2.731626c0-.387254.316356-.89962.703014-1.138526.387253-.238905.704206-.117963.704206.268695 0 .387253-.316953.899619-.70361 1.138525-.387254.239501-.70361.118559-.70361-.268694zm-5.976216-2.889507c-.24665-.399169.035747-.517133.661906-.27644 1.219551.467683 1.441775.971709.430149.971709-.364018 0-.855532-.312782-1.092055-.695269zm111.875755-.008341c-.238905-.387254-.099494-.703014.309803-.703014.410489 0 .74591.31576.74591.703014 0 .387253-.140007.70361-.310399.70361-.170987 0-.506408-.316357-.744718-.703015zm-109.066081-1.40722c-.239502-.387254-.099495-.703014.309802-.703014.410489 0 .74591.31576.74591.703014 0 .387253-.140007.70361-.310398.70361-.170988 0-.506409-.316357-.745314-.703014zm3.166542 0c0-.387254.139411-.703014.309803-.703014.170987 0 .506408.31576.745314.703014.239501.387253.099494.70361-.309803.70361-.409893 0-.745314-.316357-.745314-.703014zm-48.376306-1.873116c-.483769-.195414-.879363-.645223-.879363-.999709 0-1.014605 3.105773-.753655 4.61487.387253 1.297597.981837 1.260659 1.031882-.744718 1.000902-1.161761-.018469-2.50702-.193031-2.990789-.388446zm17.805321-.399169c-.630925-.353294-2.025633-.449214-3.098028-.213883-1.072394.235927-2.72269.119155-3.667589-.25797-1.517438-.60769-1.383388-.679183 1.161761-.619606 3.741465.087579 4.739983-.521303 3.783765-2.308031-.678588-1.267808-.474237-1.364324 2.882358-1.364324 3.246971 0 7.931547 1.489437 8.725715 2.773927.527856.853745-8.527918 2.695285-9.787982 1.989887zm13.497275.445044c-.834085-.834084.202563-1.690808 2.045294-1.690808 1.106354 0 1.666978.331846 1.486458.879363-.324101.985411-2.791204 1.551993-3.531752.811445zm509.07633-1.11946c-1.863584-1.862988-.019065-4.089993 3.386978-4.089993 1.510289 0 1.511481.012511.215671 2.23058-1.509693 2.585662-2.411696 3.050962-3.602649 1.859413zm-503.260974-.144178c0-.152518.474833-.458746 1.055117-.681566.58088-.22282 1.055713-.098303 1.055713.276439 0 .375338-.474833.681567-1.055713.681567-.580284 0-1.055117-.124517-1.055117-.27644zm-30.41787-5.043828c-.216862-.217458-1.702128-.413468-3.300592-.434916-2.204962-.03098-2.73401-.247842-2.193046-.899619.522494-.629734-.227586-1.467989-2.815035-3.144499-5.07183-3.286293-7.903547-3.929134-11.311378-2.565406-3.195139 1.278533-3.440003 1.314875-3.440003.509388 0-1.472755 5.600282-3.092071 9.632485-2.785842 3.857045.293121 6.016132 1.114098 13.588428 5.165366 6.223462 3.329188 6.230611 3.335742 4.221659 3.908281-2.281817.650586-3.888025.741144-4.382518.247247zm5.086128-5.938086c1.364324-.881746 2.11083-.881746 2.11083 0 0 .387254-.712547.698844-1.582974.692886-1.280319-.008937-1.381601-.141199-.527856-.692886zm560.388613-1.248148c-.425979-.281206-1.158186-1.239211-1.627061-2.129894-.707184-1.342281-.633904-1.994058.428958-3.813554 1.641359-2.810269 2.7495-3.16118 3.282718-1.038435.560028 2.232368-1.059883 7.658683-2.084615 6.982479zm-555.768381-.937749c.469471-.760209 3.120072-.846 3.119477-.101282 0 .290142-.789998.573731-1.754557.629138-.965155.055407-1.578803-.181711-1.36492-.527856zm-13.914912-6.781703c-1.124823-1.291044-.961581-2.994363.287759-2.994363.40036 0 .565986.617818.368189 1.37326-.197798.755442.002979 1.503735.445639 1.662807.442661.159072.618414.492706.390232.74174-.228181.249033-.899619-.103665-1.491819-.783444zm4.08761-5.527597c-.250226-.652969-.296696-1.345259-.103665-1.53829.193627-.193627.557049.181711.807274.834084.250226.652969.297292 1.345259.103665 1.538886-.193626.193627-.557049-.182307-.807274-.83468zm-4.409329-.633309c0-.58088.602924-1.055712 1.340493-1.055712 1.19155 0 1.22253.117367.284185 1.055712-.580285.580285-1.183209 1.055117-1.340493 1.055117-.156093 0-.284185-.474832-.284185-1.055117zm590.129684-15.426393c0-.551091-.76855-1.915415-1.708086-3.031897-2.229985-2.650005-1.439988-4.41886 1.201081-2.688731 1.898138 1.243978 2.890699 3.785552 2.190068 5.61041-.530835 1.383985-1.683063 1.459648-1.683063.110218zm-546.034019-4.234766c0-.170391.316357-.505812.703014-.744718.387254-.239501.704206-.099494.704206.309803 0 .409893-.316952.745314-.70361.745314-.387253 0-.70361-.139411-.70361-.309803zm549.955407-.864469c-.455767-1.189166.620797-2.312797 2.235943-2.332458 1.117673-.013702 1.138525 1.559143.03515 2.663113-1.147462 1.147462-1.736683 1.061671-2.271093-.330655zm6.429005-2.568384c-1.366112-2.085212-3.295826-2.371183-7.714091-1.144483-1.79626.498663-3.033684.504621-3.870152.017873-.675608-.394403-.857319-.726249-.403339-.737569.45398-.011916 1.779579-.824552 2.94551-1.805197 1.504331-1.266021 2.606514-1.662212 3.795084-1.363729 1.259468.315761 2.619026-.28895 5.478148-2.436718 5.566918-4.182934 6.070348-5.501979 3.805213-9.97148-2.173386-4.289578-1.568079-5.670583 1.653274-3.768275 2.344374 1.384581 4.55291 5.351248 3.911261 7.024183-.231161.601733.113197 2.490338.76557 4.197829.92226 2.41527 1.009838 3.431066.394403 4.580911-.90379 1.688425-3.419151 2.817418-6.278273 2.817418-1.602634 0-2.081637.411085-2.605323 2.237134l-.641649 2.237134zm-285.056126-2.402164c-.840042-.840042-.393211-1.594888.943707-1.594888.750676 0 1.56093-.316357 1.800431-.703014.654161-1.058692 1.769451-.846 1.346451.256183-.43432 1.131376-3.480516 2.651793-4.090589 2.041719zm-23.994824-1.217167-2.110829-.966943 2.814439-.047662c3.505538-.058981 6.088221.598754 5.580025 1.420923-.565985.915706-3.860619.703014-6.283635-.406318zm-28.424408-7.019417c-2.816823-1.441775-2.949085-1.621699-1.479309-2.005973 1.76111-.460534 5.658072.112005 5.578238.819785-.02681.241885-.264524.963964-.527856 1.605017-.431937 1.05333-.774507 1.012817-3.571669-.418829zm-14.104369-7.612809c-.608882-1.746811-.56122-2.41527.230565-3.207055 1.430454-1.430454 2.54217-.424787 2.54217 2.299691 0 3.217778-1.765876 3.79568-2.772735.907364zm-16.499979.584455c.499259-1.300576 2.639877-1.520417 2.209132-.226394-.160859.483173-.81919.981241-1.463222 1.106353-.816212.157881-1.042606-.107835-.74591-.879959zm367.659684-8.031042c-1.288064-1.809368-1.323215-2.142406-.372359-3.500772.934771-1.333939.931196-1.733704-.031576-3.594904-1.582973-3.06109-1.360153-3.246376 1.38458-1.152228 1.357175 1.03486 4.035182 2.347352 5.951193 2.916317 3.958923 1.175463 4.914545 2.098914 2.850186 2.75367-.779273.247247-1.417943.909748-1.417943 1.471564 0 .764974-.484961.897236-1.934481.526069-3.712867-.949665-4.767984-.717909-4.529674.996135.291929 2.100105-.181712 1.995845-1.899926-.415851zm-350.029521.826339c-.815615-.816211-.508196-2.179939.586838-2.59996.762592-.292525 1.055713.077451 1.055713 1.332152 0 1.689021-.688716 2.221048-1.641955 1.267808zm345.564786-14.834788c-.596966-.6779918-2.035762-3.1325834-3.197522-5.4549129-1.161761-2.3235212-4.232979-6.5886719-6.824599-9.4787747-2.895465-3.2302901-4.367028-5.3715042-3.817128-5.5550028.492706-.163838 1.549014.5719437 2.347352 1.6354014 1.936268 2.5779169 4.320558 4.8162423 8.082279 7.5883817 3.117689 2.2979028 4.659553 4.4248183 2.647622 3.6520986-2.319946-.8894916-1.740853 1.2231253 1.261851 4.6035507 1.74979 1.9708225 3.182032 3.731337 3.182032 3.911856 0 .855533-2.719711.188861-3.681887-.903194zm-514.910155-1.2320622c0-.5802845.306824-1.0551169.681566-1.0551169.375338 0 .49926.4748324.27644 1.0551169-.222224.5808803-.529048 1.0557127-.681566 1.0557127-.151923 0-.27644-.4748324-.27644-1.0557127zm-3.676525-2.2704972-2.621409-.2752479 4.933015-4.8841606c2.712561-2.6857521 5.286904-4.8841605 5.720628-4.8841605.457555 0 .320526.5171324-.326485 1.2320619-1.465605 1.6187198-.465896 3.4376198 2.210324 4.0250536 1.16891.2567788 2.334245 1.1522281 2.784055 2.1406183.722675 1.5853563.599945 1.7468112-1.837965 2.424207-2.55766.7101634-5.61041.7727197-10.862163.2216282zm-171.457986-5.0479986c-2.4379099-2.2770507-2.7095831-3.2362479-1.0932465-3.8564493 1.4477324-.5558577 4.1191859 1.2552972 5.1320028 3.4781324 1.0622662 2.331862 1.0437972 2.4194408-.520707 2.4194408-.7328028 0-2.3163719-.9186845-3.5186451-2.0411239zm309.884438-3.5752437c.773911-.3812957 2.296711-1.0152 3.384-1.4078155 2.396801-.8638732 1.99942-1.7855366-1.031286-2.3914394-2.079253-.4158507-2.152534-.5213028-.962772-1.3917296.708376-.5177281 1.081331-1.2749577.829319-1.6830633-.257971-.4170423.465895-1.0640536 1.651487-1.4775212 1.160569-.404531 2.110234-1.0479676 2.110234-1.4298591 0-1.6252733-1.466797-4.3592831-2.281817-4.2532352-1.878478.2454591-2.748904-.0857916-2.445655-.9306.172775-.4837691.029789-1.4340296-.318144-2.1108296-.905577-1.7611099 1.175464-5.4036761 3.109944-5.4430528.290738-.0053064.449214.3777767.352103.8520133-.096516.4748324.567177.9758789 1.475733 1.1140986l1.651488.2502254-1.578207 1.6800845-1.577612 1.6794887 1.778388.6762043c1.909458.7256535 3.749805 3.0908788 5.624112 7.2267464.897237 1.9815465 1.48765 2.4998705 2.535617 2.2258141 2.150747-.5624113 2.405738.8948535.388445 2.2162817-1.366707.8960451-1.626464 1.4000704-1.027711 1.9988239.598754.5987536-.581476 1.0009015-4.674448 1.5907184-3.011641.4349155-6.58331.9961352-7.938101 1.2469563-1.88384.3485282-2.131682.2925253-1.055713-.2383099zm-11.866639-3.8868338c-.240693-.6273507.033959-2.0524436.610073-3.167138.66131-1.2785324.789401-2.186493.347336-2.4599535-1.21955-.7536549-.762591-1.7152352 1.028903-2.1644493.951452-.2389056 2.098914-.8781718 2.548724-1.4209225.937749-1.1295888 5.272606-1.3375141 5.923192-.2841846.23831.3866578-.059578 1.406624-.661906 2.2675184-.602924.8608943-1.096225 2.4069295-1.096225 3.4364281 0 1.5692704-.482578 2.0381451-2.990789 2.9085719-1.644338.5713478-3.503155 1.2600633-4.131101 1.5311408-.735782.3181437-1.29581.0881747-1.578207-.6470113zm12.922352-6.9908197c0-.1709873.31576-.5064084.703014-.7453141.387253-.2395014.70361-.0994943.70361.3098028 0 .4104888-.316357.7459099-.703014.7459099-.387254 0-.704206-.140007-.704206-.3103986zm-312.2812398-3.3905535c-.689907-.8305099-.6458197-1.2177634.2192451-1.9356718 1.4298592-1.1867831 2.138831-.3812958 1.3071296 1.4834788-.5743268 1.2868733-.7828479 1.3482381-1.5269704.452193zm-1.1009915-5.2916704c-.2377141-.3848704.0399169-1.0902676.616031-1.5686747 1.1438873-.9496648 1.3827929-.2049465.4212127 1.3124916-.367593.5802845-.7745071.6803746-1.0366479.2561831zm-45.4814366-.4492141c0-.494493 2.1340648-1.3607493 5.1606-2.0941479 1.1474619-.277631 1.8260493-.2109042 1.5978676.1584761-.2174578.3521028-1.2731704.8179985-2.3455648 1.0342647s-2.5040409.6076902-3.1814366.869831c-.6768.2621409-1.2308705.2764395-1.2308705.0315761zm418.1456279-7.9118873c-1.298193-.5242817-1.068224-1.3315564.411085-1.4429662.708972-.0536198 1.289852.3544859 1.289852.9055774 0 1.0479676-.244268 1.1248226-1.700937.5373888zm-154.627352-3.5966916c-4.45282-2.4283774-6.581522-6.1591183-5.291075-9.2738282.610669-1.4739464.629139-2.4009718.06911-3.4471521-1.164739-2.1775563.355082-4.7286633 4.243107-7.1212943 1.846902-1.1361423 3.690229-2.6875395 4.097143-3.4477479 1.127205-2.1060634.123325-5.7152662-1.838561-6.6089282-.99256-.4527887-1.532928-1.1677183-1.313683-1.7390662.499855-1.3017676-1.842731-5.747438-4.17638-7.9261859-1.717023-1.6026338-2.455783-1.7628972-8.336079-1.8010268-8.007211-.0524281-9.499627-.4974718-9.366769-2.7953746.054811-.954431.266311-1.7354916.470662-1.7354916.203159 0 3.052749-.3306549 6.332489-.73399433 4.187104-.51534507 7.941676-1.57761126 12.608378-3.56749859 7.226747-3.08194225 7.776647-3.14211549 25.018365-2.73698873 5.444785.12809155 10.453462-.27465211 16.887828-1.3583662 5.992302-1.00924225 10.401034-1.38934647 12.78175-1.1021831 2.02325.24307606 4.952079.08221691 6.605949-.36342253 3.836789-1.03247747 13.807673.21030845 17.729062 2.21032394 2.318159 1.18320845 3.544859 1.33930141 7.456715.94966479 4.22583-.4206169 4.545165-.36520986 3.274974.56777324-.774507.56836902-3.149265 1.26304226-5.277372 1.54305634-4.619041.60769014-8.86334 3.89994084-7.738517 6.00242957.485556.9061732.137028 1.6800845-1.431051 3.183224-1.140312 1.0920549-2.240112 2.5117859-2.443867 3.1540309-.489727 1.5436521-6.71021 4.4164775-9.794536 4.5237169-3.425704.119155-3.78436.8471916-1.13495 2.3062437 1.251126.6893113 3.078367 1.8641789 4.059608 2.6100887l1.784345 1.3571747-1.612762.5963704c-1.236828.4575549-2.240112.1626465-4.297918-1.2630423-2.792396-1.9356718-5.796887-1.9452042-4.194254-.0137028.625564.7530592.474833 1.0455845-.694673 1.3512169-2.615451.6839493-.76557 2.0363578 2.118575 1.5490141 1.834986-.3098028 2.867463-.1465605 3.44179.5451338.682758.822169-.208521 1.2034648-5.332779 2.2806254-3.384.7113549-7.894014 1.3196408-10.022717 1.3512169-3.954156.0595774-6.803746 1.1945281-10.995617 4.3801352-1.367303 1.039031-4.271704 2.0685296-7.671194 2.7191155-7.104613 1.358962-9.504989 2.9312112-13.786225 9.0265817-3.43762 4.896076-5.510916 6.7209338-7.655705 6.738231-.580284.0047464-2.63809-.8549564-4.573166-1.9100733zm-49.892552-4.7066197c-1.510884-.9282169-3.362552-2.659538-4.115015-3.8475127-1.467989-2.3193507-2.822185-2.6142591-6.786469-1.4775211-1.342281.3854662-2.847803.4224042-3.450131.0851958-2.08402-1.165931 1.680084-2.3127972 5.871359-1.7891113 3.18799.3985732 3.896366.2847803 4.268129-.6839493.747102-1.9463958 4.165657-3.3411042 6.066178-2.4754437 1.170101.5332184 2.234155.518324 3.728357-.0518324 2.01074-.7673577 2.038146-.8364676.725058-1.8010267-.750676-.5516873-1.608591-1.0026887-1.905287-1.0026887s-1.367899-1.4137733-2.380716-3.1415198c-1.012817-1.7277464-2.909763-3.8022338-4.216893-4.6095084-2.221047-1.3726648-2.514169-1.3970916-4.501077-.3693803-1.736683.8978324-2.740563.9603887-5.488276.343762-1.849285-.415255-4.431372-.555262-5.737906-.3109944-2.266922.4241916-6.420067-.6851408-6.420067-1.7146394 0-1.8909888 5.959533-6.1346916 9.499031-6.7644254l2.815035-.5004507-2.011931 2.1430014c-2.775714 2.9574254-1.731917 4.3181747 1.282107 1.6717437 1.277937-1.1224394 3.487665-2.2591775 4.909183-2.5260845 2.173386-.4075099 3.103986-.1417944 5.832634 1.6657859 3.630055 2.4045465 3.910069 2.4688901 5.957151 1.3732606 1.233253-.6595226 1.690212-.4784071 3.028918 1.2004859.925834 1.1617605 2.993767 2.4259943 5.010465 3.064069 3.213608 1.0169873 3.433449 1.2380197 3.433449 3.4543014 0 1.6622113.479599 2.7113704 1.608591 3.5186451 4.72211 3.3768507 4.619041 3.2374394 3.597288 4.8734366-1.401262 2.2436873-2.507616 2.4063338-5.608027.8245521-2.156704-1.1009915-3.099815-1.2511268-4.185317-.6702465-1.328577.7107592-1.342876.8626817-.27346 2.9312113.877576 1.6979577.958005 2.5546817.361635 3.8641944-.735186 1.6133577-.851958 1.6383802-2.847803.6059028-3.924368-2.0292085-6.566628-.6934817-2.906189 1.4685845 1.146866.6773958 1.924948 1.4900324 1.73013 1.8063887-.681566 1.1021831-4.163273.5177282-6.890134-1.1575901zm144.533738.9115352c0-.3223141.474832-.5862422 1.055713-.5862422.580284 0 1.055117.2639281 1.055117.5862422s-.474833.5862423-1.055117.5862423c-.580881 0-1.055713-.2639282-1.055713-.5862423zm-171.064775-3.7843606c-1.386963-.7292281-2.464124-.7917845-4.406945-.2549915-3.302974.9115352-4.458181.2442676-2.782267-1.6074 2.14598-2.3711831 3.601457-2.8370789 6.188907-1.9833338 2.913338.9615803 4.206169 2.3902479 3.419746 3.7795944-.50045.8859169-.842425.8954493-2.418845.0661309zm139.752051-.3199309c-1.160569-.7637831-2.638686-1.2213381-3.28391-1.0169874-.8883.2812057-1.085501.0369381-.812636-1.0062633.418233-1.6008465 6.601183-3.9112606 8.690564-3.2481634.728633.2317563 2.59162.0417042 4.138847-.4224043 2.429569-.7280366 3.073601-.6732253 4.716152.4033395l1.902308 1.2463605-1.694383 1.3202367c-1.429859 1.1146943-4.082843 2.0816366-10.4904 3.8248732-.580284.1572845-2.005377-.3378042-3.166542-1.1009915zm-191.041098-13.1356395c-.968134-.1531141-3.324423-.980645-5.238051-1.8391563l-3.478133-1.5609296 4.885353-.3521028c2.686943-.1936268 4.885947-.6684592 4.885947-1.0557127s-1.899925-.8734056-4.221659-1.0807352c-3.065856-.2740563-3.644353-.4664915-2.111425-.7030141 2.566597-.3973817 2.751883-1.5090972.351507-2.115-1.727747-.4367028-1.714639-.4635127.716121-1.5108845 4.212127-1.8147296 8.699501-2.162662 12.675106-.9818366 3.264249.9693253 3.774232.9651549 5.313118-.0434916 1.087885-.7125464 1.733704-.8322971 1.790303-.3306549.047662.4319366.127496 1.1540155.175753 1.6056127.163243 1.5245873 1.566888 1.3273859 3.24161-.4557676 1.550206-1.6502958 4.237745-2.4408887 4.231788-1.245169-.001192.290738-.627351 1.5531845-1.391134 2.8055028l-1.388155 2.2770507 2.270497 1.1844 2.270497 1.1849958-3.727762 1.7015324c-3.364339 1.5353112-4.054842 1.6234859-7.070058.8996197-2.924062-.7012268-3.762912-.6207972-6.709018.642245-3.327997 1.4262846-4.029224 1.5174381-7.472801.9734958zm28.220653-.4956845c-.635692-.7661662-.373551-1.1426958 1.269-1.8230704 1.143887-.4736409 2.783459-.6315211 3.662227-.3526986 1.523991.483769 1.488841.5600282-.828127 1.7932817-2.955042 1.5746324-3.102794 1.5883352-4.1031.3824873zm194.133169-3.2565042c1.364324-.8817465 2.11083-.8817465 2.11083 0 0 .3872535-.712547.6988437-1.582974.6928859-1.280915-.0089366-1.381601-.1411986-.527856-.6928859zm129.120452-1.9523535c-3.597883-1.4209226-3.524007-1.3434719-2.477231-2.6047268.489727-.5898169.613648-1.0825225.27644-1.094438-.337805-.0125113.019064-.5010465.793571-1.0860972.773912-.5844549 1.411986-1.2868732 1.41854-1.5609296.025022-1.0402225 2.889507-3.7849563 4.913949-4.7072155 1.161165-.5290479 4.169231-1.1254183 6.684592-1.3250028 2.515956-.1995845 5.885062-.5659859 7.487695-.8132324 1.705703-.2633324 3.096241-.1554972 3.35302.2597578.498664.8072746-.453384 1.149845-5.91485 2.1316817-5.419762.9734957-8.676862 2.490338-10.822247 5.0402535-2.260369 2.6869436-2.336032 4.3825183-.260353 5.8302507l1.582973 1.1045662-2.11083-.0315761c-1.161165-.0172774-3.377446-.531431-4.925269-1.1432915zm-368.534282-2.0399324c-1.135546-1.1349507-.876384-1.3821972 4.567805-4.362262 6.378959-3.492431 9.584822-3.9559437 15.306642-2.2138986l3.166542.9639634-4.222255.8370634c-3.452514.6851408-10.769818 3.1313915-16.548236 5.5341507-.589817.2442676-1.6074-.095324-2.271093-.7590169zm50.835068-.9109395c0-.3747422-.871022-1.1808253-1.935076-1.7914943l-1.935076-1.1111197 2.591024.4075098c1.840944.2895465 2.757245.1173676 3.166542-.5957746.486152-.8477874 4.96459-2.5439578 6.750127-2.5570693.30027-.0023786.055407.9449031-.544538 2.1048763-1.411986 2.7316268-8.093003 5.6562845-8.093003 3.5430718zm10.955104-2.0542309c-1.00805-1.631231 5.877317-4.156124 8.801975-3.2279071 2.131682.6762042.707184 1.8391563-3.011045 2.4569747-1.663403.2764394-3.547242.7250577-4.185317.9973267-.637479.2716733-1.360749.1697958-1.605613-.2263943zm22.46845-5.1820479c-4.644064-.3693803-8.530302-.7518676-8.63635-.8501705-.629138-.5838591.940133-2.4843802 2.628558-3.1832239 1.66102-.6881197 2.425994-.5969662 4.69947.5600282 2.215686 1.1278014 3.643758 1.3154704 7.760561 1.0187746 2.774523-.2001803 5.941065-.1370282 7.036099.1406028l1.991674.5040254-2.462336 1.3160662c-1.354792.7238662-2.937765 1.282107-3.518645 1.2409986-.580285-.0417043-4.855564-.3771254-9.499031-.7471014zm202.495462-2.8752085c-3.456685-1.7694507-3.790319-2.5725549-1.075374-2.5874493 1.06465-.0059577 2.410505-.3526986 2.990789-.7697408.912727-.6565437.900216-.7101634-.089962-.3961902-.630329.1995845-1.514459-.0059577-1.964269-.4557676-.622584-.6225845-.947282-.6112648-1.3536.0458747-.375934.6088817-1.148653.6809704-2.609493.2436718-3.710484-1.1111197-4.53742-1.6044211-4.53742-2.7066042 0-.93298312.930005-1.01877467 6.684592-.61364791 4.382518.3080155 6.684591.22222395 6.684591-.24843803 0-1.38517605 1.952354-.70122676 2.470082.86566054l.52309 1.5829733.31159-1.5829733c.171584-.87102251.764379-1.58356899 1.317854-1.58356899.55407 0 1.006859-.37950845 1.006859-.84421267 0-.65654366.187669-.65654366.844213 0 .491514.49151408 2.846015.84421267 5.629474.84421267 5.030722 0 6.212143.89961972 2.85674 2.17517329-1.743237.6630971-4.77573.4754281-8.098961-.5004508-.677395-.19898868-1.229679-.103069-1.227295.2132874.004766.6493943 3.958922 3.0378549 5.028338 3.0378549.383678 0 1.141504.4444479 1.684255.9871986.847191.8471915.840042 1.0437972-.050046 1.3851761-.570752.2186492-1.037243.0560028-1.037243-.3616353 0-.491514-.89545-.5922-2.532042-.2847802-1.773026.3324422-2.387865.2412887-2.050657-.3044409.26512-.4289577.098899-1.2404028-.368784-1.8040056-.902003-1.0872888-3.492431-1.4203268-3.492431-.4492141 0 .3169521-1.029499 1.7140437-2.287179 3.1039859l-2.286583 2.5284676zm-186.663347-1.5484183c-1.220146-.7161211-2.94551-.9234507-5.629475-.6762042-2.508211.2305648-4.436733.031576-5.481126-.5659859-1.439988-.8233606-1.087885-.917493 3.306549-.8817465 5.495425.0446831 7.908908-1.1319718 4.933014-2.4039507-1.414369-.6047113-1.208231-.65952255 1.21538-.3235057 3.163564.4378944 4.393838-.40929714 2.670262-1.84034784-1.83856-1.5251831.182903-1.99882394 6.723317-1.57522817 4.047097.26214085 6.589864.11498451 7.62949-.44087324 1.991675-1.06643662 1.210614-2.42301549-1.066436-1.8516676-1.572845.39499859-12.491607-.25320423-12.030478-.71373803.329464-.32946338 15.798157-1.76230141 25.955519-2.40395071 5.268435-.33303803 11.126091-.79714648 13.017676-1.03188169l3.437619-.42717042-5.675945 2.72686056c-5.321459 2.55587324-13.975681 5.04799859-17.531265 5.04799859-.86566 0-3.354211.95026057-5.529384 2.11142536-2.175769 1.16056899-4.392646 2.11082959-4.925865 2.11082959-.533218 0-2.834696.9460901-5.114725 2.1018929-2.28003 1.1558029-4.144804 2.0947437-4.144804 2.0858704 0-.0084042-.792381-.4802577-1.759323-1.0486267zm-13.721882-6.42781267c-3.410214-.75484648-3.535326-1.03843521-1.029498-2.33722395 3.65329-1.89337183 7.109974-2.37892816 8.681628-1.21895493 1.243977.91868451 1.171889 1.06047888-1.271979 2.50225353-2.546937 1.50254366-3.580606 1.67353098-6.380151 1.05392535z" fill="#2295c7" transform="translate(-.004195 .938699)"/></svg>