<svg height="197" viewBox="0 0 197 197" width="197" xmlns="http://www.w3.org/2000/svg"><path d="m2.54198968 124.22043 10.38359892 10.205256c.4695801.454921.6809308 1.112381.5641317 1.754412l-2.4607266 14.373518c-.5561862 3.214509.7818389 6.463039 3.4447789 8.363025 2.6192397 1.890493 6.0926224 2.127843 8.9466521.610781l12.7422257-6.768825c.5661181-.304599 1.2462543-.314093 1.8207152-.026109l12.8343937 6.798099c3.9814985 2.179268 8.9832015.749234 11.1972198-3.201456l.1442111.140432c1.1509082 1.136907 1.6733259 2.76038 1.4007947 4.351416l-3.7959708 22.276085c-.7580023 4.305132 1.0269581 8.662482 4.5929062 11.21162 3.492452 2.531338 8.1314421 2.848595 11.9385365.81688l19.8844509-10.51579c1.394041-.741719 3.0677642-.741719 4.4618053 0l19.881272 10.51579c3.805903 2.036858 8.448071 1.719205 11.938537-.81688 3.565948-2.548743 5.351306-6.906092 4.592906-11.21162l-3.795971-22.276085c-.272928-1.589453.248695-3.21174 1.397617-4.347855l.147787-.143597c2.216401 3.951481 7.221283 5.380328 11.203576 3.198291l12.794666-6.78188c.562542-.286006 1.228774-.286006 1.791317 0l12.794666 6.798099c2.880647 1.513897 6.37588 1.262306 9.007435-.648757 2.631953-1.911063 3.940977-5.147725 3.374064-8.341664l-2.463905-14.373518c-.110045-.645592.107265-1.303447.580817-1.757576l10.370489-10.198928c2.304995-2.276186 3.125369-5.651302 2.121056-8.72538-1.004313-3.074077-3.662486-5.322177-6.871283-5.811909l-14.323781-2.100547c-.626901-.091775-1.164416-.494084-1.427015-1.068075l-6.400511-13.066906c-1.413508-2.9201956-4.381953-4.7762722-7.637628-4.7758766h-.029399c-3.244949.002769-6.199887 1.860428-7.598298 4.7758766l-6.381044 13.037633c-.275313.592584-.831101 1.007551-1.479456 1.104073l-14.356357 2.090657c-3.210386.482612-5.86697 2.738228-6.853406 5.818239-.258229.824791-.390125 1.683998-.390522 2.547952l-.429852-.062107c-1.577583-.236163-2.936664-1.232242-3.631896-2.662275l-8.421454-17.1766208h21.075484c5.435528 0 9.842112-4.3878095 9.842112-9.8001796-.009535-1.6883494-.462032-3.3446565-1.312202-4.8055454 4.031555-2.4996906 5.667935-7.528345 3.874631-11.9074517 4.294552-1.1301813 7.286039-4.9981944 7.286039-9.4212108s-2.991487-8.2914251-7.286039-9.4212109c1.240693-3.0175091.884734-6.4523585-.948297-9.1541922-1.833031-2.701438-4.901192-4.312253-8.17554-4.2916827l-15.980421-.0292732c4.497163-9.224606 6.607095-19.4219512 6.138309-29.66518405-.249489-5.29211282-4.552781-9.4983496-9.871113-9.64827565-5.318332-.14992606-9.85403 3.80709327-10.40386 9.07665784-.387344 3.28690126-1.460386 6.45670996-3.149603 9.30688726-1.3535186 2.6353757-3.6644722 4.6587841-6.4628833 5.6580274-4.2476734 1.9383579-8.1397849 4.5705689-11.5154378 7.7878476-2.4241773 2.2140795-4.6020435 4.6817278-6.4958575 7.3598265-.6098184.7670359-1.317764 1.451395-2.1063565 2.0352758-1.6729286-1.2211655-3.6930764-1.8802072-5.7676508-1.8817895h-9.842112c-5.4355282 0-9.8421119 4.3878095-9.8421119 9.8001796v35.9343875c0 5.4123702 4.4065837 9.8001797 9.8421119 9.8001797h9.842112c1.8612373-.0031647 3.6827471-.5372021 5.2492058-1.5388189 3.7045973 2.6943176 8.1155511 4.2592449 12.6965389 4.5049021l-8.5692401 17.4737041c-.6944382 1.432407-2.055108 2.430463-3.635074 2.665835l-.4230988.062107c-.0035755-.863954-.1362656-1.722765-.3937004-2.547952-.988025-3.085945-3.6525542-5.343934-6.869694-5.821403l-14.373043-2.093822c-.6241204-.098501-1.1584564-.498435-1.4270149-1.068075l-6.3909766-13.0669064c-1.4019865-2.9182177-4.3624861-4.7758767-7.611408-4.7758767h-.0290012c-3.2616347-.0067249-6.2376281 1.8505385-7.6539165 4.7758767l-6.4072649 13.0866854c-.272134.575574-.8199774.973135-1.4532351 1.05502l-14.32378079 2.090658c-3.20402973.498039-5.85425693 2.748512-6.85380297 5.820216-.99954605 3.071704-.17877414 6.442074 2.12304214 8.716678zm126.72821532-6.716609c.215721-.718774.829512-1.24846 1.574802-1.358828l14.300738-2.084328c2.796425-.397561 5.211862-2.151578 6.446596-4.681333l6.400908-13.0669057c.305505-.6713048.978888-1.1013038 1.719013-1.0978401.752043-.0074195 1.438933.4245574 1.755165 1.1041694l6.387401 13.0475224c1.208116 2.542809 3.621964 4.307902 6.420375 4.694387l14.28445 2.087493c.750852.125399 1.369013.657459 1.602611 1.379003.233201.721939.042906 1.51271-.493417 2.051099l-10.350625 10.179148c-2.009421 1.950226-2.926731 4.759658-2.453973 7.513709l2.460727 14.373517c.1458.764267-.171226 1.54238-.810443 1.989389-.586776.439493-1.377355.495665-2.020942.143596l-12.847504-6.821042c-2.479001-1.264284-5.419637-1.254394-7.890295.026109l-12.821284 6.791373c-.635244.354443-1.421056.303413-2.004654-.130542-.643189-.456899-.95664-1.24767-.800511-2.018662l.095346-.587836 10.521454-10.319581c3.132123-3.053903 4.240125-7.619329 2.854427-11.760295-1.325709-4.113274-4.891657-7.113773-9.186209-7.729301l-15.012658-2.172543c-.249091-.479051-.296367-1.037219-.131498-1.551478zm-47.2098783-74.4819977c1.6566403-2.3430396 3.5627698-4.5005507 5.6854147-6.4353484 2.8834281-2.7627535 6.2213398-5.0124354 9.8683322-6.6509413 3.9767314-1.5767949 7.2653804-4.5033198 9.2843364-8.2617563 2.129001-3.6148398 3.484904-7.6284276 3.982691-11.78956786.051645-1.9846412 1.70908-3.55154649 3.702213-3.50051625 1.993133.05142583 3.566743 1.70179918 3.515494 3.68644041.496198 9.4809439-1.5895 18.9187693-6.036606 27.3166062-1.079399 1.6768775-1.1521 3.8070933-.190295 5.5535934.979682 1.7963436 2.868331 2.9146574 4.921056 2.9138663l17.709365.0261085c.875199-.0170101 1.719807.3216092 2.338763.9379279s.959024 1.4573287.941941 2.3287986c0 1.8042552-1.468729 3.2667265-3.280704 3.2667265h-6.561408c-1.811975 0-3.280704 1.4624714-3.280704 3.2667266s1.468729 3.2667265 3.280704 3.2667265h13.122816c1.811975 0 3.280704 1.4624713 3.280704 3.2667266 0 1.8042552-1.468729 3.2667265-3.280704 3.2667265h-13.122816c-1.811975 0-3.280704 1.4624713-3.280704 3.2667266 0 1.8042552 1.468729 3.2667265 3.280704 3.2667265h6.561408c1.811975 0 3.280704 1.4624713 3.280704 3.2667265 0 1.8042553-1.468729 3.2667266-3.280704 3.2667266h-9.842112c-1.811975 0-3.280704 1.4624713-3.280704 3.2667265 0 1.8042553 1.468729 3.2667266 3.280704 3.2667266h6.561408c1.811975 0 3.280704 1.4624713 3.280704 3.2667265s-1.468729 3.2667265-3.280704 3.2667265h-25.199207c-4.268332-3.8806717-10.7908067-3.9241859-15.1111816-.1012693-4.5019299.3619587-8.9935307-.8156926-12.732691-3.3387227.3527809-.9941007.5391033-2.0392317.5510216-3.093461v-35.933992c-.0119183-.8726567-.1434166-1.7397752-.3905222-2.5776205 1.4015892-1.0031991 2.6542-2.1970694 3.7212829-3.5475907zm-23.01419 45.3263253c-1.8119752 0-3.280704-1.4624713-3.280704-3.2667266v-35.9343875c0-1.8042552 1.4687288-3.2667265 3.280704-3.2667265h9.8421119c1.8119752 0 3.280704 1.4624713 3.280704 3.2667265v35.9343875c0 1.8042553-1.4687288 3.2667266-3.280704 3.2667266zm16.5314427 36.1040924c3.7212829-.550652 6.9300799-2.893691 8.5759938-6.262478l9.9406363-20.253863c.7941544-1.6586806 2.4754258-2.7152835 4.3207722-2.7152835 1.8453463 0 3.5266173 1.0566029 4.3207723 2.7152835l9.940636 20.270082c1.647106 3.366809 4.855506 5.708662 8.575994 6.258918l22.230365 3.250508c1.827866.255942 3.342679 1.540401 3.887741 3.295999.6126 1.779334.135471 3.750921-1.223609 5.056741l-16.075768 15.778234c-2.674461 2.633002-3.891714 6.398955-3.26084 10.090933l3.795971 22.276085c.345233 1.85212-.423496 3.734701-1.968502 4.821764-1.461975 1.083503-3.423723 1.219979-5.022759.349696l-19.878094-10.518955c-3.321226-1.760741-7.3047111-1.760741-10.6263345 0l-19.8812727 10.518955c-1.5994325.869492-3.5603861.733015-5.0227586-.349696-1.5450057-1.086667-2.3137345-2.969644-1.9685018-4.821764l3.7959708-22.276085c.630874-3.693561-.587571-7.461096-3.2644157-10.094098l-16.0757673-15.775069c-1.3590807-1.306216-1.836209-3.277803-1.2236096-5.056741.5454597-1.756785 2.0618616-3.041244 3.8909197-3.295999zm-68.91504459-6.941695c.22009082-.719566.83467656-1.250043 1.58115788-1.365553l14.26776491-2.084328c2.8043702-.377387 5.2285475-2.137732 6.4465952-4.681333l6.3909766-13.0669057c.3162316-.6839634 1.0055052-1.1198962 1.7619184-1.1140223.7429059-.0031048 1.4178776.4296633 1.7221909 1.1041327l6.4334851 13.1060693c1.2303633 2.506415 3.6247449 4.245004 6.397333 4.645334l14.3170271 2.087493c.7508514.109972 1.370999.640053 1.594268 1.362388.1601022.510698.1120318 1.063328-.1346765 1.538819l-15.0289454 2.195092c-4.294552.615527-7.8601027 3.615631-9.1862095 7.729301-1.3856982 4.140966-.2776959 8.706392 2.854427 11.760295l10.5214536 10.31958.0985244.607616c.149773.765849-.1648695 1.547917-.803689 1.999278-.5835983.426834-1.3622589.479051-1.9979003.134103l-12.8506819-6.807988c-2.4841659-1.276943-5.4355282-1.276943-7.9196941 0l-12.7946661 6.788208c-.6447787.359586-1.4421113.3046-2.0308741-.140432-.6320659-.439097-.949092-1.204946-.8104428-1.960115l2.4571512-14.373517c.4814983-2.750886-.429058-5.561505-2.4341092-7.513709l-10.3669133-10.189038c-.55578892-.539575-.74568677-1.352499-.48547109-2.080768z" fill="#009e0b"/></svg>