<svg height="248" viewBox="0 0 341 248" width="341" xmlns="http://www.w3.org/2000/svg"><g fill="none"><path d="m318.349 118.514c.189-2.17.288-4.374.288-6.6 0-34.872-23.62-63.143-52.756-63.143-9.277 0-18.023 2.883-25.591 7.93-20.623-16.021-47.548-25.701-77.003-25.701-47.93 0-89.157 25.656-107.447 62.45a44.263 44.263 0 0 0 -3.071-.109c-29.152 0-52.769 28.269-52.769 63.14 0 12.817 3.199 24.746 8.682 34.705 0 31.372 25.095 56.814 56.05 56.814h39.027l.172-.298c2.294-3.73 7.786-4.662 11.612-2.544 1.011.557 1.952 1.282 3.08 1.538 4.52.961 7.557-6.322 12.131-5.614 2.297.356 4.088 2.733 6.398 2.49 1.532-.164 2.693-1.449 4.133-1.993 2.306-.878 4.644.34 6.26 2.316.937-2.7.93-5.902 2.447-8.379 2.294-3.73 7.786-4.662 11.612-2.544 1.01.558 1.951 1.282 3.08 1.538 4.52.961 7.556-6.322 12.13-5.614 2.297.356 4.089 2.734 6.398 2.49 1.533-.163 2.694-1.448 4.133-1.993 3.59-1.368 7.265 2.346 8.148 6.088.342 1.649.523 3.327.54 5.011 3.097-1.502 5.714-5.729 9.248-5.18 2.297.355 4.089 2.732 6.398 2.489 1.532-.163 2.694-1.448 4.133-1.993 3.59-1.368 7.265 2.345 8.148 6.088.47 1.987.502 4.05.582 6.088h64.665c24.311 0 44.01-19.969 44.01-44.603 4.933-9.613 7.783-20.917 7.783-33.023 0-21.468-8.957-40.437-22.651-51.844z" fill="#6c63ff" opacity=".1"/><circle cx="200.5" cy="57.5" fill="#6c63ff" r="27.5"/><g fill="#fff"><path d="m190 58.067 8.955-9.067 9.045 9.067h-6.147v6.933h-5.706v-6.887zm46.991 69.511c-.784-3.912-4.042-6.915-8.119-7.482-4.076-.568-8.077 1.425-9.968 4.965-4.089.43-7.116 3.88-6.892 7.854.223 3.974 3.618 7.085 7.73 7.085h16.797c3.558-.01 6.441-2.794 6.461-6.236.013-3.28-2.626-5.996-6.009-6.186zm-7.43 3.687v4.739h-4.119v-4.751h-4.406l6.461-6.252 6.457 6.252-4.392.012zm55.43 76.313c-.784-3.912-4.042-6.915-8.119-7.482-4.076-.568-8.077 1.425-9.968 4.965-4.089.43-7.116 3.88-6.892 7.854.223 3.974 3.618 7.085 7.73 7.085h16.797c3.558-.01 6.441-2.794 6.461-6.236.013-3.28-2.626-5.996-6.009-6.186zm-7.43 3.687v4.739h-4.119v-4.751h-4.406l6.461-6.252 6.457 6.252-4.392.012zm-172.669-60.165c-1.2-6.254-6.146-11.048-12.325-11.949-6.18-.9-12.242 2.288-15.11 7.95-6.195.694-10.779 6.211-10.44 12.566.34 6.354 5.484 11.33 11.717 11.333h25.472c5.404-.018 9.78-4.488 9.794-10.005.017-5.244-3.98-9.587-9.108-9.895zm-11.264 5.895v7.602h-6.268v-7.602h-6.661l9.797-9.999 9.787 10h-6.655zm121.56 20.005v-8.353l3.85 3.85.962-.997-5.5-5.5-5.5 5.5.963.963 3.85-3.816v8.353zm-179 10v-8.353l3.85 3.85.962-.997-5.5-5.5-5.5 5.5.962.963 3.85-3.816v8.353zm178.75-84v-5.316l2.45 2.452.612-.633-3.5-3.503-3.5 3.503.613.613 2.45-2.432v5.316zm-71-42v-5.316l2.45 2.452.612-.633-3.5-3.503-3.5 3.503.613.613 2.45-2.432v5.316zm-26 58v-5.316l2.45 2.452.612-.633-3.5-3.503-3.5 3.503.612.613 2.45-2.432v5.316zm164 27v-5.316l2.45 2.452.612-.633-3.5-3.503-3.5 3.503.613.613 2.45-2.432v5.316zm-169 50v-5.316l2.45 2.452.612-.633-3.5-3.503-3.5 3.503.612.613 2.45-2.432v5.316z"/><circle cx="253" cy="94" r="2"/><circle cx="71" cy="88" r="2"/><circle cx="127" cy="137" r="2"/><circle cx="294.5" cy="170.5" r="1"/><circle cx="223.5" cy="197.5" r="1"/><circle cx="100.5" cy="219.5" r="1"/><circle cx="30.5" cy="140.5" r="1"/><circle cx="39.5" cy="121.5" r="1"/><circle cx="245.5" cy="229.5" r="1"/><circle cx="68.5" cy="194.5" r="1"/><circle cx="89.5" cy="107.5" r="1"/><path d="m123 74.167h-5.167v-5.167h-.666v5.167h-5.167v.666h5.167v5.167h.666v-5.167h5.167zm121 91.119h-3.286v-3.286h-.428v3.286h-3.286v.428h3.286v3.286h.428v-3.286h3.286zm-19 56h-3.286v-3.286h-.428v3.286h-3.286v.428h3.286v3.286h.428v-3.286h3.286zm-148-8h-3.287v-3.286h-.426v3.286h-3.287v.428h3.287v3.286h.426v-3.286h3.287zm-22-55h-3.286v-3.286h-.428v3.286h-3.286v.428h3.286v3.286h.428v-3.286h3.286z"/></g><g fill="#3f3d56"><path d="m145.145 214.753.024-1.74-1.154-.013-.024 1.74-1.991 5.207 5 .053zm5.001.002.023-1.74-1.155-.015-.023 1.742-1.991 5.208 5 .051z"/><path d="m153.143 214.753.024-1.74-1.153-.013-.024 1.74-1.99 5.207 5 .053zm35.003 1.002.023-1.743-1.155-.012-.023 1.742-1.991 5.204 5 .054z"/><path d="m191.146 215.755.023-1.743-1.155-.012-.023 1.742-1.991 5.204 5 .054zm5 0 .023-1.743-1.155-.012-.023 1.742-1.991 5.204 5 .054zm-30 0 .023-1.743-1.155-.012-.023 1.742-1.991 5.204 5 .054z"/><path d="m169.146 215.755.023-1.743-1.152-.012-.023 1.742-1.994 5.204 5 .054zm4.998 0 .023-1.743-1.151-.012-.023 1.742-1.993 5.204 5 .054zm-11.151-129.006c-.07-6.384-7.868-17.7-12.076-17.749-4.209-.048-11.904 11.09-12.13 17.47h-.2l-1.587 128.25 24.413.28 1.587-128.248zm42.997 0c-.07-6.384-7.868-17.7-12.077-17.749-4.208-.048-11.904 11.09-12.126 17.47h-.2l-1.587 128.25 24.413.28 1.587-128.248z"/></g><path d="m184.997 25.958c-.037-9.358-7.557-25.91-11.647-25.958s-11.647 16.325-11.896 25.663h-.19l-2.264 188.055 23.735.282 2.265-188.058z" fill="#2f2e41"/><path d="m163 126.069 8.958-9.069 9.042 9.069h-6.144v6.931h-5.71v-6.89z" fill="#6c63ff"/><path d="m183.9 88.073c2.468-5.694 7.287-11.633 10.286-11.598 3.902.045 10.933 10.222 11.73 16.72l.084-6.98c-.068-6.399-7.69-17.743-11.805-17.792-2.959-.035-7.687 5.75-10.185 11.377zm-45.352 5.397h.195c.218-6.397 7.743-17.56 11.853-17.513 2.687.032 6.865 4.878 9.464 10.02l.63-52.207h.192c.254-9.377 7.847-25.789 11.958-25.725 3.883.045 10.848 14.86 11.635 24.406l.075-6.43c-.036-9.381-7.596-25.974-11.707-26.021-4.11-.048-11.707 16.364-11.957 25.74h-.192l-.631 52.208c-2.602-5.145-6.777-9.988-9.463-10.02-4.11-.048-11.636 11.116-11.854 17.512h-.195l-1.551 128.56h.098z" fill="#000" opacity=".1"/><path d="m172.342 8.116a2.222 2.222 0 0 1 2.196 2.249l-.062 5.184a2.222 2.222 0 1 1 -4.444-.053l.062-5.184a2.222 2.222 0 0 1 2.248-2.196z" fill="#ececf3"/></g></svg>