<svg height="87" viewBox="0 0 92 87" width="92" xmlns="http://www.w3.org/2000/svg"><path d="m81.1300349 30.7732694 9.6263527-9.6263527c.3969487-.3962524.5835842-.9568552.5041946-1.5118869-.0786935-.5550316-.4150553-1.0411197-.9067144-1.3113233l-11.5727938-6.3546603c-.8628411-.4735528-1.9464412-.1580831-2.4206905.704758-.4735528.8635374-.1587793 1.9471375.7047581 2.4206903l9.4905544 5.2111697-8.2614064 8.26071-29.713347-16.3159819 8.2607103-8.26071029 8.3505458 4.58580138c.862841.47355277 1.9471375.15877963 2.4206903-.70475776.4742491-.86284104.1587794-1.94713773-.704758-2.4206905l-9.5232854-5.22997237c-.6950083-.38162782-1.5585457-.25836487-2.1184522.30223817l-9.6270491 9.62704917-9.6270492-9.62704917c-.5606029-.56060304-1.4241403-.68316964-2.1184522-.30223817l-32.9690222 18.10364374c-.49165911.2702036-.8280209.7555951-.90671436 1.3113233-.07938964.5550317.10724586 1.1156345.50419459 1.5118869l9.62635267 9.6263527-9.62635267 9.6256564c-.39694873.3969486-.58358423.9568551-.50419459 1.5125833.07869346.5550316.41505525 1.0411197.90671436 1.3106268l9.9627144 5.4709273v18.2861008c0 .651135.3544683 1.2500401.9248207 1.5634205l32.9690223 18.1029474c.267418.1469407.5626921.2200627.8579662.2200627.295274 0 .5905481-.073122.8579662-.2200627l32.9690222-18.1029474c.5703524-.3133804.9248207-.9122855.9248207-1.5634205v-18.2861008l9.9627144-5.4702309c.4916591-.2702035.8280209-.7562916.9067144-1.3113232.0793896-.5550319-.1072459-1.1156347-.5041946-1.5118869zm-35.4906906 16.0687597-29.2648646-16.0694561 29.2648646-16.0701524 29.2648646 16.0701524zm-11.2016121-42.85234709 8.2600137 8.26071029-29.7133469 16.3159819-8.26071011-8.26071zm-21.4519403 28.98978609 29.7133467 16.315982-8.2614064 8.2614066-29.71404331-16.315982zm63.8397877 32.9453445-29.4034485 16.1453638v-18.2241211c0-.9847113-.7980756-1.7827869-1.7827868-1.7827869-.9847113 0-1.7827869.7980756-1.7827869 1.7827869v18.2241211l-29.4034485-16.1453638v-15.2734695l19.440734 10.675133c.2695071.1476369.5647812.2200626.8572697.2200626.461714 0 .9185531-.1796714 1.2611825-.5223007l9.6270492-9.6270492 9.6270491 9.6270492c.3426294.3433257.7994685.5223007 1.2611825.5223007.2924885 0 .5877626-.0724257.8572697-.2200626l19.440734-10.675133zm-19.9839267-8.3679559-8.2614066-8.262103 29.7133467-16.3152856 8.262103 8.2607103z" fill="#ccc"/></svg>