<svg viewBox="0 0 24 24" xmlns="http://www.w3.org/2000/svg"><path d="M8 20H5a1 1 0 0 1-1-1v-3a1 1 0 0 0-2 0v3a3 3 0 0 0 3 3h3a1 1 0 0 0 0-2ZM3 9a1 1 0 0 0 1-1V5a1 1 0 0 1 1-1h3a1 1 0 0 0 0-2H5a3 3 0 0 0-3 3v3a1 1 0 0 0 1 1Zm16-7h-3a1 1 0 0 0 0 2h3a1 1 0 0 1 1 1v3a1 1 0 0 0 2 0V5a3 3 0 0 0-3-3Zm-3 10a1 1 0 0 0-1-1h-2V9a1 1 0 0 0-2 0v2H9a1 1 0 0 0 0 2h2v2a1 1 0 0 0 2 0v-2h2a1 1 0 0 0 1-1Zm5 3a1 1 0 0 0-1 1v3a1 1 0 0 1-1 1h-3a1 1 0 0 0 0 2h3a3 3 0 0 0 3-3v-3a1 1 0 0 0-1-1Z" fill="#d6d6d6" className="fill-6563ff"></path></svg>