<svg height="191" viewBox="0 0 201 191" width="201" xmlns="http://www.w3.org/2000/svg"><g fill="none" fill-rule="evenodd"><path d="m.105304.792492h200v190h-200z" fill="#ebebeb"/><path d="m28.515625.63269043-.9653727.44555664-26.13932294 11.88151043-1.41092936.5940755v44.3328858h26.1393229v-14.2578126h4.7526042v14.2578126h26.1393229v-44.3328858l-1.4109294-.5940755-26.1393229-11.88151043zm0 5.19816081 23.7630208 10.76761886v36.5356445h-16.6341146v-14.2578125h-14.2578125v14.2578125h-16.63411453v-36.5356445zm-19.01041667 14.03503416v4.7526042h9.50520837v-4.7526042zm14.25781247 0v4.7526042h9.5052084v-4.7526042zm14.2578125 0v4.7526042h9.5052084v-4.7526042zm-28.51562497 9.5052084v4.7526041h9.50520837v-4.7526041zm14.25781247 0v4.7526041h9.5052084v-4.7526041zm14.2578125 0v4.7526041h9.5052084v-4.7526041zm-28.51562497 9.5052083v4.7526041h9.50520837v-4.7526041zm28.51562497 0v4.7526041h9.5052084v-4.7526041z" fill="#969696" opacity=".699614" transform="translate(72.730304 63.854992)"/></g></svg>